<?xml version="1.0" encoding="utf-8"?>
<!-- Generator: Adobe Illustrator 25.2.1, SVG Export Plug-In . SVG Version: 6.00 Build 0)  -->
<svg version="1.1" id="Group_5978" xmlns="http://www.w3.org/2000/svg" xmlns:xlink="http://www.w3.org/1999/xlink" x="0px" y="0px"
	 viewBox="0 0 16 16" style="enable-background:new 0 0 16 16;" xml:space="preserve">
<style type="text/css">
	.st0{fill:#23BC3D;}
	.st1{fill:#FFFFFF;}
</style>
<path id="Rectangle_3" class="st0" d="M3,0h10c1.6568546,0,3,1.3431456,3,3v10c0,1.6568546-1.3431454,3-3,3H3
	c-1.6568544,0-3-1.3431454-3-3V3C0,1.3431456,1.3431456,0,3,0z"/>
<path id="Shape" class="st1" d="M7.3150001,11.0740004L4.526,8.2849998C4.3583817,8.1175489,4.3582463,7.845921,4.5256977,7.6783028
	C4.5257983,7.6782017,4.5258994,7.6781006,4.526,7.678l0.6069999-0.6069999
	c0.1674514-0.1676188,0.4390793-0.1677537,0.6066976-0.0003023C5.7397985,7.0707984,5.7398992,7.070899,5.7399998,7.0710001
	L7.618,8.9500008l4.0249996-4.0240006c0.1674519-0.1676183,0.4390793-0.1677537,0.606698-0.0003023
	C12.2497978,4.9257984,12.2498989,4.9258995,12.25,4.9260001L12.8570004,5.533
	c0.1676178,0.1674514,0.1677532,0.4390793,0.0003014,0.6066976c-0.0001011,0.0001011-0.0002003,0.0002017-0.0003014,0.0003028
	l-4.9350004,4.934c-0.1674509,0.1676188-0.4390788,0.1677542-0.6066971,0.0003023
	C7.3152018,11.0742016,7.3151007,11.0741014,7.3150001,11.0740004z"/>
</svg>
