<svg xmlns="http://www.w3.org/2000/svg" width="96" height="90" viewBox="0 0 96 90">
  <g id="my-wallet-graphic" transform="translate(0 -15.999)">
    <g id="Group_10487" data-name="Group 10487" transform="translate(1.875 17.874)">
      <path id="Path_7423" data-name="Path 7423" d="M307.125,148.821v-17.2a5.625,5.625,0,0,1,11.25,0V157.1a22.5,22.5,0,0,1-12.437,20.124l-10.063,5.031V193.5H276V169.022a9.262,9.262,0,0,1,8.336-9.216c.022-.006,8.595-1.318,12.726-5.449l4.211-4.209A5.623,5.623,0,0,1,307.125,148.821Z" transform="translate(-226.125 -107.25)" fill="#fce8d0"/>
      <path id="Path_7424" data-name="Path 7424" d="M256,92.25v-5.3a17.2,17.2,0,0,1,17.2-17.2A12.8,12.8,0,0,0,282.25,66v9.052a17.2,17.2,0,0,1-17.2,17.2Z" transform="translate(-209.875 -58.5)" fill="#b4ec84"/>
      <path id="Path_7425" data-name="Path 7425" d="M142.25,52.25H133.2a17.2,17.2,0,0,1-17.2-17.2V26a12.8,12.8,0,0,0,9.052,3.75,17.2,17.2,0,0,1,17.2,17.2Z" transform="translate(-96.125 -26)" fill="#d8ec84"/>
      <path id="Path_7426" data-name="Path 7426" d="M21.25,148.821a5.623,5.623,0,0,1,5.852,1.327l4.211,4.209c4.049,4.049,12.706,5.443,12.726,5.449a9.262,9.262,0,0,1,8.336,9.216V193.5H32.5V182.25l-10.063-5.031A22.5,22.5,0,0,1,10,157.1v-25.47a5.625,5.625,0,0,1,11.25,0Z" transform="translate(-10 -107.25)" fill="#fce8d0"/>
    </g>
    <g id="Group_10488" data-name="Group 10488" transform="translate(0 15.999)">
      <path id="Path_7427" data-name="Path 7427" d="M13.473,170.772l9.027,4.512v10.091a1.875,1.875,0,0,0,1.875,1.875H44.25a1.875,1.875,0,0,0,1.875-1.875V160.9a11.1,11.1,0,0,0-10.011-11.08c-.022-.006-7.931-1.241-11.6-4.91L20.3,140.7a7.45,7.45,0,0,0-5.3-2.2v-15a7.5,7.5,0,0,0-15,0v25.47a24.377,24.377,0,0,0,13.473,21.8ZM3.75,123.5a3.75,3.75,0,1,1,7.5,0v16.005A7.5,7.5,0,0,0,9.7,151.3l9.6,9.6a1.875,1.875,0,0,0,2.652-2.651l-9.6-9.6a3.749,3.749,0,0,1,1.4-6.187h0a3.745,3.745,0,0,1,3.9.887l4.211,4.209c4.347,4.347,13.846,5.983,13.864,5.988a7.363,7.363,0,0,1,6.648,7.35v22.6H26.25v-9.375a1.875,1.875,0,0,0-1.036-1.677l-10.063-5.031A20.514,20.514,0,0,1,3.75,148.97Z" transform="translate(0 -97.25)"/>
      <path id="Path_7428" data-name="Path 7428" d="M132.25,59.124a1.875,1.875,0,0,0,3.75,0V53.5h7.178A19.094,19.094,0,0,0,162.25,34.427V25.374a1.875,1.875,0,0,0-3.2-1.326,10.855,10.855,0,0,1-7.727,3.2A19.057,19.057,0,0,0,136,34.978v-17.1a1.875,1.875,0,0,0-3.75,0v9.6a19.057,19.057,0,0,0-15.322-7.729,10.855,10.855,0,0,1-7.727-3.2,1.875,1.875,0,0,0-3.2,1.326v9.052A19.094,19.094,0,0,0,125.072,46h7.177ZM151.322,31a14.594,14.594,0,0,0,7.177-1.867v5.295a15.34,15.34,0,0,1-15.322,15.323H139.75l10.5-7.875a1.875,1.875,0,1,0-2.25-3l-12,9V46.322A15.34,15.34,0,0,1,151.322,31ZM109.75,26.927V21.632a14.6,14.6,0,0,0,7.177,1.867A15.34,15.34,0,0,1,132.25,38.822v1.552l-12-9a1.875,1.875,0,1,0-2.25,3l10.5,7.875h-3.427A15.34,15.34,0,0,1,109.75,26.927Z" transform="translate(-86.125 -15.999)"/>
      <circle id="Ellipse_1467" data-name="Ellipse 1467" cx="1.875" cy="1.875" r="1.875" transform="translate(84.188 67.125)"/>
      <path id="Path_7429" data-name="Path 7429" d="M304.625,116a7.509,7.509,0,0,0-7.5,7.5v15a7.45,7.45,0,0,0-5.3,2.2l-4.212,4.21c-3.588,3.589-11.568,4.9-11.587,4.909A11.1,11.1,0,0,0,266,160.9v24.478a1.875,1.875,0,0,0,1.875,1.875H287.75a1.875,1.875,0,0,0,1.875-1.875V175.284l6.137-3.068a1.875,1.875,0,0,0-1.677-3.354l-7.174,3.586a1.876,1.876,0,0,0-1.036,1.677V183.5H269.75V160.9a7.367,7.367,0,0,1,6.662-7.352c.019-.005,9.267-1.4,13.851-5.987l4.212-4.21a3.747,3.747,0,0,1,3.9-.886h0a3.75,3.75,0,0,1,1.4,6.188l-9.6,9.6a1.875,1.875,0,1,0,2.652,2.651l9.6-9.6a7.5,7.5,0,0,0-1.553-11.8V123.5a3.75,3.75,0,0,1,7.5,0v25.47a20.681,20.681,0,0,1-2.5,9.849,1.875,1.875,0,1,0,3.295,1.791,24.441,24.441,0,0,0,2.959-11.64V123.5A7.509,7.509,0,0,0,304.625,116Z" transform="translate(-216.125 -97.25)"/>
    </g>
  </g>
</svg>
