<?xml version="1.0" encoding="utf-8"?>
<!-- Generator: Adobe Illustrator 25.2.1, SVG Export Plug-In . SVG Version: 6.00 Build 0)  -->
<svg version="1.1" id="Warstwa_1" xmlns="http://www.w3.org/2000/svg" xmlns:xlink="http://www.w3.org/1999/xlink" x="0px" y="0px"
	 viewBox="0 0 15.7049999 28.5809994" style="enable-background:new 0 0 15.7049999 28.5809994;" xml:space="preserve">
<style type="text/css">
	.st0{fill:#FFC423;}
</style>
<path class="st0" d="M14.9980469,13.5830135c-0.0008545-0.0008545-0.0020752-0.0010986-0.0029297-0.0019531L2.1210938,0.707037
	c-0.390625-0.390625-1.0234375-0.390625-1.4140625,0s-0.390625,1.0234375,0,1.4140625l12.1694336,12.1694336L0.7070312,26.4599667
	c-0.390625,0.390625-0.390625,1.0234375,0,1.4140625c0.1953125,0.1953125,0.4511719,0.2929688,0.7070312,0.2929688
	s0.5117188-0.0976562,0.7070312-0.2929688l12.8740234-12.8740234c0.0008545-0.0008545,0.0020752-0.0010986,0.0029297-0.0019531
	c0.1954346-0.1954346,0.2929688-0.4514771,0.2928467-0.7075195C15.2910156,14.0344906,15.1934814,13.7784481,14.9980469,13.5830135z
	"/>
</svg>
