<svg xmlns="http://www.w3.org/2000/svg" width="96" height="96" viewBox="0 0 96 96">
  <g id="earn-rewards-graphic" transform="translate(0 0)">
    <circle id="XMLID_856_" cx="23.075" cy="23.075" r="23.075" transform="translate(1.875 32.317)" fill="#2ecc71"/>
    <ellipse id="XMLID_1633_" cx="16.321" cy="28.274" rx="16.321" ry="28.274" transform="translate(31.679 1.875)" fill="#d8ec84"/>
    <path id="XMLID_849_" d="M292.909,192.777a14.308,14.308,0,1,0-26.671,2.734,13.488,13.488,0,1,0,11.623,23.663,15.285,15.285,0,1,0,15.049-26.4Z" transform="translate(-208 -142.071)" fill="#b4ec84"/>
    <circle id="XMLID_1500_" cx="9.313" cy="9.313" r="9.313" transform="translate(75.5 1.875)" fill="#b4ec84"/>
    <g id="XMLID_61_" transform="translate(0 0)">
      <path id="XMLID_925_" d="M78.841,81.9a17.161,17.161,0,0,0,8.2-32.234A16.192,16.192,0,0,0,71.063,30.91a16.118,16.118,0,0,0-4.9.762c.022-.508.037-1.016.037-1.523A34.5,34.5,0,0,0,48.939.252a1.875,1.875,0,0,0-1.878,0A34.5,34.5,0,0,0,29.8,30.149c0,.257.007.514.013.77a25.065,25.065,0,0,0-4.867-.478A24.958,24.958,0,0,0,1.661,46.422a1.875,1.875,0,1,0,3.5,1.349A21.216,21.216,0,0,1,30.123,34.831a34.464,34.464,0,0,0,15.671,24.44A21.236,21.236,0,0,1,26.825,76.508V69.351L35.372,60.8a1.875,1.875,0,0,0-2.652-2.652l-5.9,5.9V50.093a1.875,1.875,0,1,0-3.75,0v5.868L19.416,52.3a1.875,1.875,0,1,0-2.652,2.652l6.31,6.31V76.5A21.351,21.351,0,0,1,5.161,63.014a1.875,1.875,0,1,0-3.5,1.349A24.96,24.96,0,0,0,23.074,80.271V92.25H1.875a1.875,1.875,0,0,0,0,3.75h92.25a1.875,1.875,0,0,0,0-3.75H71.736V80.358A17.056,17.056,0,0,0,78.841,81.9Zm4.654-34.8a12.478,12.478,0,0,1-.4,3.141,1.875,1.875,0,0,0,1.07,2.193A13.41,13.41,0,1,1,71.736,76.107v-11l7.379-7.379a1.875,1.875,0,0,0-2.652-2.652L71.735,59.8V55.749a1.875,1.875,0,1,0-3.75,0V66.967L63.722,62.7a1.875,1.875,0,0,0-2.652,2.652l6.915,6.915v3.884a11.47,11.47,0,0,1-6.5,1.991,11.614,11.614,0,0,1-2.8-22.885,1.875,1.875,0,0,0,1.229-2.653,12.305,12.305,0,0,1-1.287-5.514,12.432,12.432,0,0,1,24.865,0ZM33.554,30.149A30.889,30.889,0,0,1,48,4.064,30.889,30.889,0,0,1,62.446,30.149a31.274,31.274,0,0,1-.186,3.375A16.177,16.177,0,0,0,55.15,50.041a30.757,30.757,0,0,1-5.275,4.92V33.134l5.762-5.762a1.875,1.875,0,0,0-2.652-2.652l-3.111,3.111V19.875a1.875,1.875,0,0,0-3.75,0V36.613l-4.647-4.647a1.875,1.875,0,1,0-2.652,2.652l7.3,7.3V54.956A30.892,30.892,0,0,1,33.554,30.149ZM26.825,80.27a25.021,25.021,0,0,0,19.3-11.684V92.25h-19.3Zm23.05,11.98V76.573A15.36,15.36,0,0,0,67.986,80.46V92.25Z" transform="translate(0 0)"/>
      <path id="XMLID_1620_" d="M403.854,22.375a11.187,11.187,0,1,0-11.188-11.187A11.2,11.2,0,0,0,403.854,22.375Zm0-18.625a7.438,7.438,0,1,1-7.438,7.438A7.446,7.446,0,0,1,403.854,3.75Z" transform="translate(-319.041 0)"/>
      <path id="XMLID_1622_" d="M1.875,289.17a1.875,1.875,0,1,0-1.326-3.2,1.874,1.874,0,0,0,1.326,3.2Z" transform="translate(0 -231.904)"/>
    </g>
  </g>
</svg>
