<svg xmlns="http://www.w3.org/2000/svg" width="96" height="96.003" viewBox="0 0 96 96.003">
  <g id="my-profile-graphics" transform="translate(-0.007)">
    <path id="Path_7407" data-name="Path 7407" d="M82.009,102.252H13.757a3.75,3.75,0,0,1-3.75-3.75V13.75A3.75,3.75,0,0,1,13.757,10H82.009a3.75,3.75,0,0,1,3.75,3.75V98.5A3.75,3.75,0,0,1,82.009,102.252Z" transform="translate(-8.125 -8.125)" fill="#fff"/>
    <circle id="Ellipse_1466" data-name="Ellipse 1466" cx="15.375" cy="15.375" r="15.375" transform="translate(24.383 12)" fill="#d8ec84"/>
    <path id="Path_7408" data-name="Path 7408" d="M195.757,114.375v1.219a4.875,4.875,0,0,1-4.875,4.875h0a4.875,4.875,0,0,1-4.875-4.875v-1.219a4.875,4.875,0,0,1,4.875-4.875h0A4.875,4.875,0,0,1,195.757,114.375Z" transform="translate(-151.124 -88.968)" fill="#d8ec84"/>
    <path id="Path_7409" data-name="Path 7409" d="M166.644,168h0a11.252,11.252,0,0,0-10.469,7.131,15.363,15.363,0,0,0,20.938,0A11.252,11.252,0,0,0,166.644,168Z" transform="translate(-126.886 -136.499)" fill="#d8ec84"/>
    <path id="Path_7410" data-name="Path 7410" d="M338.971,139.545l1.071-1.856a6,6,0,0,1,8.2-2.2h0a6,6,0,0,1,2.2,8.2l-23.6,40.869-10.393-6,10.178-17.629Z" transform="translate(-257.106 -109.433)" fill="#b4ec84"/>
    <path id="Path_7411" data-name="Path 7411" d="M438.414,135.492h0a6,6,0,0,0-8.2,2.2l-2.786,4.825,10.393,6,2.786-4.825A6,6,0,0,0,438.414,135.492Z" transform="translate(-347.281 -109.433)" fill="#2ecc71"/>
    <path id="Path_7412" data-name="Path 7412" d="M319.643,374.656l-12.054,8.877,1.661-14.877Z" transform="translate(-249.909 -299.531)" fill="#b4ec84"/>
    <path id="Path_7413" data-name="Path 7413" d="M77.634,74.689a1.875,1.875,0,0,0-1.875,1.875V90.377a1.877,1.877,0,0,1-1.875,1.875H5.632a1.877,1.877,0,0,1-1.875-1.875V5.625A1.877,1.877,0,0,1,5.632,3.75H73.884a1.877,1.877,0,0,1,1.875,1.875V26.016a1.875,1.875,0,1,0,3.75,0V5.625A5.632,5.632,0,0,0,73.884,0H5.632A5.632,5.632,0,0,0,.007,5.625V90.377A5.632,5.632,0,0,0,5.632,96H73.884a5.632,5.632,0,0,0,5.625-5.625V76.564A1.875,1.875,0,0,0,77.634,74.689Z"/>
    <path id="Path_7414" data-name="Path 7414" d="M154.508,71.25a17.25,17.25,0,1,0-29.085,12.538,1.854,1.854,0,0,0,.2.188,17.218,17.218,0,0,0,23.267,0,1.876,1.876,0,0,0,.2-.187A17.2,17.2,0,0,0,154.508,71.25Zm-17.25-13.5a13.492,13.492,0,0,1,10.864,21.5,13.008,13.008,0,0,0-5.524-4.631,6.715,6.715,0,0,0,1.411-4.122V69.282a6.75,6.75,0,1,0-13.5,0V70.5a6.715,6.715,0,0,0,1.411,4.122,13.008,13.008,0,0,0-5.524,4.631,13.492,13.492,0,0,1,10.864-21.5Zm-3,12.75V69.282a3,3,0,1,1,6,0V70.5a3,3,0,1,1-6,0ZM129.1,82a9.375,9.375,0,0,1,16.31,0,13.465,13.465,0,0,1-16.31,0Z" transform="translate(-97.499 -43.875)"/>
    <path id="Path_7415" data-name="Path 7415" d="M214.007,438H203.882a1.875,1.875,0,1,0,0,3.75h10.125a1.875,1.875,0,1,0,0-3.75Z" transform="translate(-164.124 -355.873)"/>
    <path id="Path_7416" data-name="Path 7416" d="M142.508,382H115.882a1.875,1.875,0,0,0,0,3.75h26.626a1.875,1.875,0,0,0,0-3.75Z" transform="translate(-92.624 -310.373)"/>
    <path id="Path_7417" data-name="Path 7417" d="M142.508,326H115.882a1.875,1.875,0,0,0,0,3.75h26.626a1.875,1.875,0,0,0,0-3.75Z" transform="translate(-92.624 -264.873)"/>
    <path id="Path_7418" data-name="Path 7418" d="M74.489,270.549a1.874,1.874,0,1,0,.55,1.326A1.89,1.89,0,0,0,74.489,270.549Z" transform="translate(-57.915 -219.374)"/>
    <path id="Path_7419" data-name="Path 7419" d="M74.489,326.549a1.874,1.874,0,1,0,.55,1.326A1.893,1.893,0,0,0,74.489,326.549Z" transform="translate(-57.915 -264.873)"/>
    <path id="Path_7420" data-name="Path 7420" d="M73.162,382a1.876,1.876,0,1,0,1.327.549A1.892,1.892,0,0,0,73.162,382Z" transform="translate(-57.915 -310.373)"/>
    <path id="Path_7421" data-name="Path 7421" d="M142.508,270H115.882a1.875,1.875,0,1,0,0,3.75h26.626a1.875,1.875,0,1,0,0-3.75Z" transform="translate(-92.624 -219.374)"/>
    <path id="Path_7422" data-name="Path 7422" d="M333.855,125.734a7.875,7.875,0,0,0-10.758,2.883l-23.6,40.869a1.878,1.878,0,0,0-.24.73L297.6,185.092a1.875,1.875,0,0,0,2.975,1.718l12.054-8.877a1.871,1.871,0,0,0,.512-.572l23.6-40.869A7.884,7.884,0,0,0,333.855,125.734ZM302.671,173.48l5.427,3.133-6.294,4.635Zm8.161.381-7.145-4.125,18.935-32.8,7.145,4.125Zm22.658-39.245-1.848,3.2-7.145-4.125,1.848-3.2a4.125,4.125,0,0,1,7.145,4.125Z" transform="translate(-241.784 -101.298)"/>
  </g>
</svg>
