<svg id="camera-icon" xmlns="http://www.w3.org/2000/svg" width="20.948" height="16.488" viewBox="0 0 20.948 16.488">
  <g id="Group_10469" data-name="Group 10469" transform="translate(0 0)">
    <g id="Group_10468" data-name="Group 10468">
      <path id="Path_7400" data-name="Path 7400" d="M20.251,47.369a2.252,2.252,0,0,0-1.653-.7H15.293v-.04a1.788,1.788,0,0,0-.538-1.294,1.822,1.822,0,0,0-1.294-.538H7.487a1.836,1.836,0,0,0-1.852,1.832v.04H2.35a2.252,2.252,0,0,0-1.653.7A2.367,2.367,0,0,0,0,49.022v9.917a2.252,2.252,0,0,0,.7,1.653,2.367,2.367,0,0,0,1.653.7H18.6a2.252,2.252,0,0,0,1.653-.7,2.367,2.367,0,0,0,.7-1.653V49.022A2.252,2.252,0,0,0,20.251,47.369Zm-.339,11.569h-.02A1.292,1.292,0,0,1,18.6,60.232H2.35a1.292,1.292,0,0,1-1.294-1.294V49.022A1.292,1.292,0,0,1,2.35,47.727H6.193a.535.535,0,0,0,.538-.538v-.577a.75.75,0,0,1,.777-.777h5.954a.75.75,0,0,1,.777.777v.577a.535.535,0,0,0,.538.538h3.843a1.292,1.292,0,0,1,1.294,1.294Z" transform="translate(0 -44.8)" fill="#06bcc1"/>
      <path id="Path_7401" data-name="Path 7401" d="M116.9,130.8a4.9,4.9,0,1,0,3.465,1.434A4.907,4.907,0,0,0,116.9,130.8Zm2.708,7.627a3.846,3.846,0,0,1-5.416,0,3.807,3.807,0,0,1-1.115-2.708,3.891,3.891,0,0,1,1.115-2.708A3.807,3.807,0,0,1,116.9,131.9a3.892,3.892,0,0,1,2.708,1.115,3.807,3.807,0,0,1,1.115,2.708A3.726,3.726,0,0,1,119.607,138.427Z" transform="translate(-106.424 -126.519)" fill="#06bcc1"/>
      <ellipse id="Ellipse_1465" data-name="Ellipse 1465" cx="0.976" cy="0.976" rx="0.976" ry="0.976" transform="translate(16.587 4.261)" fill="#06bcc1"/>
    </g>
  </g>
</svg>
