<?xml version="1.0" encoding="utf-8"?>
<!-- Generator: Adobe Illustrator 25.2.1, SVG Export Plug-In . SVG Version: 6.00 Build 0)  -->
<svg version="1.1" id="Warstwa_1" xmlns="http://www.w3.org/2000/svg" xmlns:xlink="http://www.w3.org/1999/xlink" x="0px" y="0px"
	 viewBox="0 0 72 72" style="enable-background:new 0 0 72 72;" xml:space="preserve">
<style type="text/css">
	.st0{fill:#FFFFFF;}
	.st1{fill:#FF3E1D;}
</style>
<g id="Group_9572" transform="translate(-271.237 -447.335)">
	<circle id="Ellipse_1457" class="st0" cx="307.2369995" cy="483.3349915" r="36"/>
	<g id="Group_9542" transform="translate(271.237 447.237)">
		<circle id="Ellipse_1457-2" class="st0" cx="36" cy="36.098999" r="36"/>
		<path id="Shape" class="st1" d="M36,72.098999c-19.8822517,0-36-16.1177483-36-36s16.1177483-36,36-36s36,16.1177483,36,36
			C71.9774017,55.9718819,55.8728828,72.0764008,36,72.098999z M36,41.0479965L36,41.0479965l11.4700012,11.473999
			c1.3741264,1.3484077,3.5748749,1.3484077,4.9490013,0c1.342514-1.3780823,1.342514-3.5749168,0-4.9529991L40.9490013,36.098999
			l11.473999-11.4740009c1.342514-1.3780842,1.342514-3.5749168,0-4.953001c-1.3741264-1.3484097-3.5748749-1.3484097-4.9490013,0
			L36,31.1499996L24.5259991,19.671999c-1.3757038-1.3483543-3.5772972-1.3483543-4.953001,0
			c-1.3383045,1.3797913-1.3383045,3.5732098,0,4.953001l11.4780025,11.473999L19.573,47.572998
			c-1.3383045,1.3797913-1.3383045,3.5732079,0,4.9529991c1.3757038,1.3483543,3.5772972,1.3483543,4.953001,0L36,41.0509987
			V41.0479965z"/>
	</g>
</g>
</svg>
