<?xml version="1.0" encoding="utf-8"?>
<!-- Generator: Adobe Illustrator 25.2.1, SVG Export Plug-In . SVG Version: 6.00 Build 0)  -->
<svg version="1.1" id="Warstwa_1" xmlns="http://www.w3.org/2000/svg" xmlns:xlink="http://www.w3.org/1999/xlink" x="0px" y="0px"
	 viewBox="0 0 18 19" style="enable-background:new 0 0 18 19;" xml:space="preserve">
<style type="text/css">
	.st0{fill:none;}
	.st1{fill:#72809D;}
</style>
<g id="Group_9164" transform="translate(-53 -582.61)">
	<g id="Rectangle_2658" transform="translate(53 583.949)">
		<path class="st0" d="M3-0.0000007h12c1.6568546,0,3,1.3431456,3,3v11.6609993c0,1.6568556-1.3431454,3.000001-3,3.000001H3
			c-1.6568544,0-3-1.3431454-3-3.000001V2.9999993C0,1.3431449,1.3431456-0.0000007,3-0.0000007z"/>
		<path class="st1" d="M15,17.6610107H3c-1.6542969,0-3-1.3457031-3-3.000001V2.9998772c0-1.6542969,1.3457031-3,3-3h12
			c1.6542969,0,3,1.3457031,3,3v11.6611328C18,16.3153076,16.6542969,17.6610107,15,17.6610107z M3,1.9998772
			c-0.5512695,0-1,0.4487305-1,1v11.6611328c0,0.5517578,0.4487305,1,1,1h12c0.5517578,0,1-0.4482422,1-1V2.9998772
			c0-0.5512695-0.4482422-1-1-1H3z"/>
	</g>
	<rect x="53.4072266" y="588.7818604" class="st1" width="17.1171875" height="2"/>
	<path class="st1" d="M58.7949219,587.053833c-0.5522461,0-1-0.4477539-1-1v-2.4438477c0-0.5522461,0.4477539-1,1-1s1,0.4477539,1,1
		v2.4438477C59.7949219,586.6060791,59.347168,587.053833,58.7949219,587.053833z"/>
	<path class="st1" d="M65.1171875,587.053833c-0.5527344,0-1-0.4477539-1-1v-2.4438477c0-0.5522461,0.4472656-1,1-1s1,0.4477539,1,1
		v2.4438477C66.1171875,586.6060791,65.6699219,587.053833,65.1171875,587.053833z"/>
</g>
</svg>
