<?xml version="1.0" encoding="utf-8"?>
<!-- Generator: Adobe Illustrator 25.2.1, SVG Export Plug-In . SVG Version: 6.00 Build 0)  -->
<svg version="1.1" id="Warstwa_1" xmlns="http://www.w3.org/2000/svg" xmlns:xlink="http://www.w3.org/1999/xlink" x="0px" y="0px"
	 viewBox="0 0 20.9899998 17.4459991" style="enable-background:new 0 0 20.9899998 17.4459991;" xml:space="preserve">
<style type="text/css">
	.st0{fill:#253F50;}
</style>
<g id="Icon_feather-camera" transform="translate(-0.75 -3.75)">
	<path class="st0" d="M19.2177734,21.1962891H3.2719727c-1.390625,0-2.5219727-1.1318359-2.5219727-2.5224609V8.9291992
		c0.0004883-1.3901367,1.1318359-2.5209961,2.5219727-2.5209961h3.1416016l1.5493164-2.3242188
		C8.1020508,3.8754883,8.3359375,3.75,8.5869141,3.75h5.3134766c0.2509766,0,0.4853516,0.1254883,0.6240234,0.3339844
		l1.5488281,2.3242188h3.1425781c0.0009766,0,0.0029297,0,0.0039062,0c0.6708984,0,1.3037109,0.2612305,1.7792969,0.7363281
		c0.4775391,0.4760742,0.7402344,1.1088867,0.7412109,1.7827148v9.746582
		C21.7402344,20.0644531,20.6083984,21.1962891,19.2177734,21.1962891z M3.2719727,7.9082031
		c-0.5634766,0-1.0214844,0.4580078-1.0219727,1.0214844v9.7441406c0,0.5634766,0.4584961,1.0224609,1.0219727,1.0224609h15.9458008
		c0.5634766,0,1.0224609-0.4589844,1.0224609-1.0224609V8.9291992c0-0.2729492-0.1074219-0.5297852-0.3007812-0.7226562
		c-0.1923828-0.1923828-0.4482422-0.2983398-0.7207031-0.2983398c-0.0009766,0-0.0009766,0-0.0019531,0H15.671875
		c-0.2509766,0-0.4853516-0.1254883-0.6240234-0.3339844L13.4990234,5.25H8.9882812L7.4389648,7.5742188
		C7.2998047,7.7827148,7.065918,7.9082031,6.8149414,7.9082031H3.2719727z"/>
	<path class="st0" d="M11.2451172,17.5996094c-2.331543,0-4.2280273-1.8964844-4.2280273-4.2275391
		c0-2.331543,1.8964844-4.2280273,4.2280273-4.2280273c2.3310547,0,4.2275391,1.8964844,4.2275391,4.2280273
		C15.4726562,15.703125,13.5761719,17.5996094,11.2451172,17.5996094z M11.2451172,10.644043
		c-1.5043945,0-2.7280273,1.2236328-2.7280273,2.7280273c0,1.5039062,1.2236328,2.7275391,2.7280273,2.7275391
		c1.5039062,0,2.7275391-1.2236328,2.7275391-2.7275391C13.9726562,11.8676758,12.7490234,10.644043,11.2451172,10.644043z"/>
</g>
</svg>
