<svg xmlns="http://www.w3.org/2000/svg" width="23.264" height="20" viewBox="0 0 23.264 20">
  <g id="fac-icon" transform="translate(0 -28.588)">
    <g id="Group_10529" data-name="Group 10529" transform="translate(0 28.588)">
      <g id="Group_10528" data-name="Group 10528" transform="translate(0 0)">
        <path id="Path_7432" data-name="Path 7432" d="M23.231,39.905h0L18.839,28.876a.457.457,0,0,0-.593-.256h0L.426,35.716a.448.448,0,0,0-.183.145.452.452,0,0,0-.243.4V48.132a.457.457,0,0,0,.457.457h19.18a.457.457,0,0,0,.457-.457V41.647L22.976,40.5A.457.457,0,0,0,23.231,39.905Zm-4.051,7.77H.913V36.715H19.18ZM7.62,35.8l7.647-3.047a3.633,3.633,0,0,0,2.618,1.129l.763,1.918Zm12.474,4.862V36.258a.457.457,0,0,0-.457-.457H19.63l-.968-2.43a.378.378,0,0,0-.037-.058.451.451,0,0,0-.477-.352,2.731,2.731,0,0,1-2.394-1.031.453.453,0,0,0-.586-.1.513.513,0,0,0-.064.012L5.767,35.558a.451.451,0,0,0-.251.244H2.682l15.478-6.163L22.214,39.82Z" transform="translate(0 -28.588)" fill="#fff"/>
        <path id="Path_7433" data-name="Path 7433" d="M32.326,193.909a2.731,2.731,0,0,1,1.844,1.841.457.457,0,0,0,.438.326.418.418,0,0,0,.07-.011.425.425,0,0,0,.063.013H45.7a.391.391,0,0,0,.056-.011.425.425,0,0,0,.514-.313v0a2.73,2.73,0,0,1,1.844-1.844.451.451,0,0,0,.313-.5.462.462,0,0,0,.013-.068v-3.653a.411.411,0,0,0-.014-.068.45.45,0,0,0-.313-.5,2.728,2.728,0,0,1-1.843-1.844.451.451,0,0,0-.506-.313.435.435,0,0,0-.064-.013H34.74a.43.43,0,0,0-.068.014.451.451,0,0,0-.5.313,2.731,2.731,0,0,1-1.844,1.843.451.451,0,0,0-.313.5.46.46,0,0,0-.013.068v3.653a.418.418,0,0,0,.013.063A.452.452,0,0,0,32.326,193.909Zm.587-4.038a3.624,3.624,0,0,0,2.012-2.012H45.514a3.625,3.625,0,0,0,2.013,2.012v3.283a3.628,3.628,0,0,0-2.012,2.012H34.925a3.628,3.628,0,0,0-2.012-2.012Z" transform="translate(-30.173 -177.905)" fill="#fff"/>
        <path id="Path_7434" data-name="Path 7434" d="M130.74,224.425a2.74,2.74,0,1,0-2.74-2.74A2.74,2.74,0,0,0,130.74,224.425Zm0-4.567a1.827,1.827,0,1,1-1.827,1.827A1.827,1.827,0,0,1,130.74,219.858Z" transform="translate(-120.693 -208.079)" fill="#fff"/>
        <path id="Path_7435" data-name="Path 7435" d="M76.685,256.315A.685.685,0,1,0,76,255.63.685.685,0,0,0,76.685,256.315Zm0-.913a.228.228,0,1,1-.228.228A.228.228,0,0,1,76.685,255.4Z" transform="translate(-71.662 -242.024)" fill="#fff"/>
        <path id="Path_7436" data-name="Path 7436" d="M252.685,256.315a.685.685,0,1,0-.685-.685A.685.685,0,0,0,252.685,256.315Zm0-.913a.228.228,0,1,1-.228.228A.228.228,0,0,1,252.685,255.4Z" transform="translate(-237.615 -242.024)" fill="#fff"/>
      </g>
    </g>
  </g>
</svg>
