<?xml version="1.0" encoding="utf-8"?>
<!-- Generator: Adobe Illustrator 25.2.1, SVG Export Plug-In . SVG Version: 6.00 Build 0)  -->
<svg version="1.1" id="Warstwa_1" xmlns="http://www.w3.org/2000/svg" xmlns:xlink="http://www.w3.org/1999/xlink" x="0px" y="0px"
	 viewBox="0 0 32 32" style="enable-background:new 0 0 32 32;" xml:space="preserve">
<style type="text/css">
	.st0{fill:#FFFFFF;}
	.st1{fill:#FF3E1D;}
</style>
<g id="Group_9572" transform="translate(-231 -417)">
	<g transform="matrix(1, 0, 0, 1, 231, 417)">
		<circle id="Ellipse_1457-3" class="st0" cx="16" cy="16" r="16"/>
	</g>
	<g id="Group_9542" transform="translate(271 447)">
		<g transform="matrix(1, 0, 0, 1, -40, -30)">
			<circle id="Ellipse_1457-4" class="st0" cx="16" cy="16" r="16"/>
		</g>
		<path id="Shape" class="st1" d="M-24,2c-8.8365555,0-16-7.1634445-16-16s7.1634445-16,16-16s16,7.1634445,16,16
			C-8.0099201-5.1675568-15.1675568,1.9900799-24,2z M-24-11.7999992L-24-11.7999992l5.1000004,5.1000004
			c0.6107273,0.5997028,1.5892735,0.5997028,2.2000008,0c0.5959835-0.6122437,0.5959835-1.5877571,0-2.2000008L-21.7999992-14
			l5.1000004-5.1000004c0.5959835-0.6122437,0.5959835-1.5877552,0-2.1999989c-0.6107273-0.5997047-1.5892735-0.5997047-2.2000008,0
			L-24-16.2000008l-5.1000004-5.0999985c-0.6111641-0.5986347-1.5888348-0.5986347-2.1999989,0
			c-0.5938835,0.6130943-0.5938835,1.5869026,0,2.1999989L-26.2000008-14l-5.0999985,5.1000004
			c-0.5938835,0.6130962-0.5938835,1.5869045,0,2.2000008c0.6111641,0.5986347,1.5888348,0.5986347,2.1999989,0L-24-11.7999992z"/>
	</g>
</g>
</svg>
