<svg xmlns="http://www.w3.org/2000/svg" width="18.794" height="18.117" viewBox="0 0 18.794 18.117">
  <g id="Wallet_with_money" data-name="Wallet with money" transform="translate(0.25 -0.577)">
    <path id="Path_6873" data-name="Path 6873" d="M17.151,9.678h-.381V6.629a1.143,1.143,0,0,0-1.143-1.143h-.358l-1.906-3.3a.381.381,0,0,0-.522-.13l-1.46.835L10.313,1.041a.381.381,0,0,0-.522-.13L7.123,2.436H1.906A1.906,1.906,0,0,0,0,4.342v12.2a1.906,1.906,0,0,0,1.906,1.906h13.72A1.143,1.143,0,0,0,16.769,17.3V14.251h.381a1.143,1.143,0,0,0,1.143-1.143V10.821A1.143,1.143,0,0,0,17.151,9.678ZM12.89,2.9l1.5,2.588H8.4ZM9.841,1.754l.88,1.524L6.879,5.485H3.373ZM1.094,3.534C1.524,3.1,1.555,3.2,5.812,3.2L1.856,5.485a1.143,1.143,0,0,1-.762-1.951ZM16.007,17.3a.381.381,0,0,1-.381.381H1.906A1.143,1.143,0,0,1,.762,16.538V5.866c.728.553.133.381,14.864.381a.381.381,0,0,1,.381.381V9.678H13.72a2.287,2.287,0,1,0,0,4.573h2.287Zm1.524-4.192a.381.381,0,0,1-.381.381H13.72a1.524,1.524,0,1,1,0-3.049h3.43a.381.381,0,0,1,.381.381Z" transform="translate(0 0)" fill="#06bcc1" stroke="#06bcc1" stroke-width="0.5"/>
    <path id="Path_6874" data-name="Path 6874" d="M35.655,29.111a.381.381,0,1,0,.084.417A.381.381,0,0,0,35.655,29.111Z" transform="translate(-21.664 -17.417)" fill="#06bcc1" stroke="#06bcc1" stroke-width="0.5"/>
  </g>
</svg>
