<?xml version="1.0" encoding="utf-8"?>
<!-- Generator: Adobe Illustrator 26.2.1, SVG Export Plug-In . SVG Version: 6.00 Build 0)  -->
<svg version="1.1" id="Layer_1" xmlns="http://www.w3.org/2000/svg" xmlns:xlink="http://www.w3.org/1999/xlink" x="0px" y="0px"
	 viewBox="0 0 17.067 16" style="enable-background:new 0 0 17.067 16;" xml:space="preserve">
<style type="text/css">
	.st0{fill:#FFFFFF;}
</style>
<path class="st0" d="M16.745,5.074L12.58,0.91c-0.08-0.081-0.187-0.125-0.301-0.125c-0.114,0-0.221,0.044-0.301,0.125L9.687,3.2
	c-0.094,0.094-0.094,0.247,0,0.342c0.094,0.094,0.247,0.094,0.342,0l2.25-2.25l4.084,4.084l-7.358,7.358l-0.857-0.857
	c0.035-0.04,0.069-0.08,0.102-0.121l0.132-0.167c0.083,0.023,0.175,0.014,0.256-0.03c0.227-0.123,0.509-0.123,0.736,0
	c0.053,0.028,0.11,0.042,0.166,0.042c0.089,0,0.176-0.035,0.242-0.101l0.56-0.56c0.094-0.094,0.094-0.247,0-0.342
	c-0.094-0.094-0.247-0.094-0.342,0l-0.49,0.49c-0.209-0.092-0.435-0.124-0.657-0.097l0.171-0.216l1.09-1.09l0,0l0.972-0.972
	c0.302-0.078,0.578-0.236,0.8-0.458c0.686-0.686,0.686-1.801,0-2.487c-0.686-0.686-1.801-0.686-2.487,0
	C8.941,6.227,8.776,6.906,8.958,7.517C8.755,7.64,8.571,7.779,8.42,7.93L7.456,8.894C7.394,8.956,7.311,8.991,7.222,8.991H7.214
	c-0.131,0-0.319-0.146-0.372-0.284V7.869l4.932-4.932c0.322,0.142,0.687,0.142,1.01,0l1.934,1.934c-0.142,0.322-0.142,0.687,0,1.01
	l-3.911,3.91c-0.094,0.094-0.094,0.247,0,0.342c0.047,0.047,0.109,0.071,0.171,0.071s0.124-0.024,0.171-0.071l3.981-3.981
	c0.108-0.108,0.132-0.272,0.059-0.408c-0.123-0.227-0.123-0.509,0-0.736c0.074-0.136,0.05-0.3-0.058-0.408l-2.074-2.074
	c-0.109-0.108-0.272-0.132-0.408-0.059c-0.227,0.123-0.509,0.123-0.736,0c-0.136-0.073-0.3-0.05-0.408,0.059L6.842,7.186V6.728
	l2.37-2.37C9.277,4.293,9.3,4.195,9.269,4.108C9.238,4.02,9.16,3.958,9.068,3.948C8.665,3.902,8.269,3.87,7.95,3.844
	C7.731,3.826,7.559,3.812,7.456,3.799C7.139,3.761,6.83,3.871,6.511,4.133L4.403,5.796C4.402,5.798,4.4,5.799,4.399,5.8
	C4.061,6.079,3.821,6.45,3.705,6.872C3.486,7.664,3.014,9.103,2.717,9.69L1.69,10.717l-0.038-0.038
	c-0.101-0.101-0.235-0.156-0.378-0.156s-0.277,0.056-0.378,0.156l-0.542,0.543c-0.101,0.101-0.156,0.235-0.156,0.378
	c0,0.143,0.056,0.277,0.156,0.378l3.083,3.083c0.101,0.101,0.235,0.156,0.378,0.156c0.143,0,0.277-0.056,0.378-0.156l0.542-0.543
	c0.101-0.101,0.156-0.235,0.156-0.378s-0.056-0.277-0.156-0.378l-0.039-0.039l0.256-0.256c0.11-0.11,0.247-0.191,0.397-0.235
	c0.003-0.001,0.006-0.002,0.01-0.003l1.548-0.521c0.327-0.112,0.628-0.28,0.893-0.495l0.904,0.904
	c0.081,0.081,0.187,0.125,0.301,0.125s0.221-0.044,0.301-0.125l7.439-7.439c0.081-0.081,0.125-0.187,0.125-0.301
	C16.87,5.262,16.825,5.155,16.745,5.074z M9.943,9.173L9.766,8.996c-0.062-0.062-0.062-0.163,0-0.225l0.346-0.346
	c0.105-0.105,0.242-0.157,0.379-0.157c0.097,0,0.193,0.026,0.279,0.078L9.943,9.173z M9.74,6.111c0.497-0.497,1.307-0.497,1.804,0
	c0.465,0.465,0.495,1.201,0.092,1.701c-0.001-0.18-0.073-0.347-0.212-0.491c-0.154-0.184-0.405-0.29-0.728-0.308
	C10.305,6.993,9.835,7.1,9.397,7.29C9.305,6.871,9.43,6.421,9.74,6.111z M4.392,14.175L3.85,14.717
	c-0.012,0.012-0.026,0.015-0.036,0.015c-0.01,0-0.024-0.003-0.036-0.015l-3.083-3.083c-0.012-0.012-0.015-0.026-0.015-0.036
	s0.003-0.024,0.015-0.036l0.542-0.543c0.012-0.012,0.026-0.015,0.036-0.015c0.01,0,0.024,0.003,0.036,0.015l3.083,3.083
	c0.012,0.012,0.015,0.026,0.015,0.036S4.405,14.162,4.392,14.175z M8.144,11.11L7.87,11.456c-0.071,0.09-0.147,0.173-0.229,0.251
	c-0.001,0.001-0.002,0.002-0.003,0.003c-0.001,0.001-0.001,0.001-0.002,0.002c-0.253,0.24-0.554,0.424-0.887,0.538l-1.542,0.519
	c-0.226,0.066-0.432,0.189-0.599,0.356L4.353,13.38l-2.322-2.322l1.054-1.054c0.017-0.017,0.032-0.037,0.043-0.059
	C3.444,9.344,3.936,7.849,4.17,7.001c0.09-0.326,0.275-0.612,0.534-0.827l2.108-1.663C6.814,4.51,6.815,4.509,6.817,4.507
	c0.218-0.18,0.397-0.251,0.582-0.228C7.51,4.292,7.687,4.307,7.91,4.325c0.18,0.015,0.384,0.031,0.6,0.051L6.429,6.458
	C6.384,6.503,6.359,6.565,6.359,6.629l0,2.115c0,0.021,0.003,0.042,0.008,0.062c0.095,0.356,0.491,0.668,0.847,0.668h0.008
	c0.218,0,0.422-0.084,0.576-0.238l0.964-0.964c0.158-0.158,0.363-0.303,0.588-0.424c0.001,0,0.002-0.001,0.003-0.001
	c0.01-0.005,0.02-0.01,0.029-0.016c0.422-0.221,0.909-0.356,1.289-0.335c0.185,0.01,0.322,0.059,0.386,0.139
	c0.005,0.007,0.011,0.013,0.017,0.019c0.085,0.085,0.085,0.154,0.076,0.205c-0.008,0.039-0.026,0.082-0.052,0.126
	C10.698,7.69,10.131,7.723,9.77,8.084L9.425,8.43C9.303,8.551,9.237,8.712,9.237,8.884s0.067,0.333,0.188,0.454l0.177,0.177
	l-0.93,0.93c-0.007,0.007-0.013,0.014-0.019,0.021L8.144,11.11C8.144,11.109,8.144,11.11,8.144,11.11z"/>
</svg>
