<svg xmlns="http://www.w3.org/2000/svg" width="24" height="22" viewBox="0 0 24 22">
  <g id="unfav" transform="translate(0 0)" fill="#06bcc1">
    <path d="M 12.00000095367432 20.7857666015625 C 9.251446723937988 18.87013816833496 6.972983837127686 16.94570350646973 5.221490859985352 15.05975532531738 C 3.57335090637207 13.28509521484375 2.388391017913818 11.54350566864014 1.699510931968689 9.883365631103516 C 0.6990309357643127 7.471455574035645 0.7686809301376343 5.300325393676758 1.900980949401855 3.604785680770874 C 2.973950862884521 1.998095631599426 4.921340942382812 1.000005602836609 6.983191013336182 1.000005602836609 C 8.696340560913086 1.000005602836609 10.20298099517822 1.689345598220825 11.22558116912842 2.941035509109497 L 12.00000095367432 3.888955593109131 L 12.77442073822021 2.941035509109497 C 13.79702091217041 1.689345598220825 15.30366134643555 1.000005602836609 17.01681137084961 1.000005602836609 C 19.07889175415039 1.000005602836609 21.02637100219727 1.99802553653717 22.0992603302002 3.60459566116333 C 23.23149108886719 5.30003547668457 23.30106163024902 7.471235752105713 22.30044174194336 9.883475303649902 C 21.61161041259766 11.54350566864014 20.42665100097656 13.28509521484375 18.77851104736328 15.05975532531738 C 17.02701759338379 16.94570350646973 14.74855518341064 18.87013816833496 12.00000095367432 20.7857666015625 Z" stroke="none"/>
    <path d="M 12.00000095367432 19.56188774108887 C 18.07639694213867 15.21878051757812 20.45636177062988 11.71840381622314 21.37676048278809 9.500325202941895 C 22.24335098266602 7.411175727844238 22.20562171936035 5.564515590667725 21.26765060424805 4.159965515136719 C 20.37791061401367 2.827655553817749 18.74909019470215 2.000005483627319 17.01681137084961 2.000005483627319 C 16.20179176330566 2.000005483627319 14.66748142242432 2.204455614089966 13.54883098602295 3.573715686798096 L 11.99999141693115 5.469545364379883 L 10.45116138458252 3.573715686798096 C 9.332520484924316 2.204455614089966 7.798211097717285 2.000005483627319 6.983191013336182 2.000005483627319 C 5.25114107131958 2.000005483627319 3.622400999069214 2.827725648880005 2.732600927352905 4.16014575958252 C 1.794550895690918 5.56479549407959 1.756740927696228 7.41139554977417 2.623151063919067 9.500095367431641 C 3.543635368347168 11.71839046478271 5.923604011535645 15.21877956390381 12.00000095367432 19.56188774108887 M 12.00000095367432 22.0000057220459 C 5.547680854797363 17.60732650756836 2.16369104385376 13.61116600036621 0.7758709788322449 10.26662540435791 C -2.942028999328613 1.303695559501648 7.677409648895264 -2.982644557952881 12.00000095367432 2.3083655834198 C 16.32258796691895 -2.982642889022827 26.94202995300293 1.303694367408752 23.22413063049316 10.26662540435791 C 21.83631134033203 13.61116600036621 18.45232009887695 17.60732650756836 12.00000095367432 22.0000057220459 Z" stroke="none" fill="#06bcc1"/>
  </g>
</svg>
