<svg id="Group_9573" data-name="Group 9573" xmlns="http://www.w3.org/2000/svg" width="71.951" height="71.951" viewBox="0 0 71.951 71.951">
  <path id="Path" d="M35.976,0A35.976,35.976,0,1,0,71.951,35.975,35.978,35.978,0,0,0,35.976,0Z" transform="translate(0)" fill="#23bc3d"/>
  <path id="Shape" d="M10.862,23.38.468,12.986a1.6,1.6,0,0,1,0-2.261L2.73,8.464a1.6,1.6,0,0,1,2.261,0l7,7,15-15a1.6,1.6,0,0,1,2.261,0L31.513,2.73a1.6,1.6,0,0,1,0,2.261L13.124,23.38a1.6,1.6,0,0,1-2.261,0Z" transform="translate(19.985 24.051)" fill="#fff"/>
</svg>
