<svg id="Home" xmlns="http://www.w3.org/2000/svg" width="18" height="18.946" viewBox="0 0 18 18.946">
  <path id="Home-2" data-name="Home" d="M14.476,18.946H12.591a1.726,1.726,0,0,1-1.7-1.6l-.009-.133V14.5a.6.6,0,0,0-.512-.588l-.085-.009H7.758a.6.6,0,0,0-.587.512l-.009.086v2.7a1,1,0,0,1-.019.17l-.009.02-.011.066a1.717,1.717,0,0,1-1.6,1.478l-.124.009H3.7A3.706,3.706,0,0,1,0,15.44V7.569A2.82,2.82,0,0,1,.947,5.493L6.849.747a3.442,3.442,0,0,1,4.13-.114l.153.114L16.9,5.361a2.853,2.853,0,0,1,1.091,2.016L18,7.569v7.682A3.709,3.709,0,0,1,14.476,18.946ZM7.617,12.588h2.672A1.929,1.929,0,0,1,12.2,14.361v2.851a.413.413,0,0,0,.332.407H14.3A2.374,2.374,0,0,0,16.672,15.4l.011-.151V7.577a1.535,1.535,0,0,0-.474-1.07l-.123-.1L10.308,1.78A2.111,2.111,0,0,0,8.99,1.321a2.138,2.138,0,0,0-1.183.354l-.143.1L1.9,6.422a1.471,1.471,0,0,0-.576,1l-.011.152v7.674a2.379,2.379,0,0,0,2.237,2.368H5.4a.406.406,0,0,0,.416-.339l.02-.171.01-.049V14.5A1.905,1.905,0,0,1,7.617,12.588Z" transform="translate(0 0)" fill="#06bcc1"/>
</svg>
