<?xml version="1.0" encoding="utf-8"?>
<!-- Generator: Adobe Illustrator 25.2.1, SVG Export Plug-In . SVG Version: 6.00 Build 0)  -->
<svg version="1.1" id="Warstwa_1" xmlns="http://www.w3.org/2000/svg" xmlns:xlink="http://www.w3.org/1999/xlink" x="0px" y="0px"
	 viewBox="0 0 20 20" style="enable-background:new 0 0 20 20;" xml:space="preserve">
<style type="text/css">
	.st0{fill:#FE2121;}
</style>
<g>
	<path class="st0" d="M10,0C4.4858398,0,0,4.4858398,0,10c0,5.5136719,4.4858398,10,10,10c5.5136719,0,10-4.4863281,10-10
		C20,4.4858398,15.5136719,0,10,0z M10,18c-4.4111328,0-8-3.5888672-8-8s3.5888672-8,8-8s8,3.5888672,8,8S14.4111328,18,10,18z"/>
	<path class="st0" d="M12.7001953,6.2998047H7.2998047c-0.5522461,0-1,0.4477539-1,1v5.4003906c0,0.5527344,0.4477539,1,1,1
		h5.4003906c0.5527344,0,1-0.4472656,1-1V7.2998047C13.7001953,6.7475586,13.2529297,6.2998047,12.7001953,6.2998047z"/>
</g>
</svg>
