<svg xmlns="http://www.w3.org/2000/svg" width="71.951" height="71.951" viewBox="0 0 71.951 71.951">
  <g id="question" transform="translate(0 0)">
    <path id="Path" d="M35.976,0A35.976,35.976,0,1,0,71.951,35.975,35.978,35.978,0,0,0,35.976,0Z" fill="#06bcc1"/>
    <path id="Path_7453" data-name="Path 7453" d="M-3.9-9.07v-1.512a5.616,5.616,0,0,1,.7-2.909A7.375,7.375,0,0,1-.7-15.8,9.374,9.374,0,0,0,1.345-17.42a2.452,2.452,0,0,0,.624-1.652A1.328,1.328,0,0,0,1.3-20.241a3.164,3.164,0,0,0-1.74-.431,13.687,13.687,0,0,0-6.205,1.881l-2.443-4.781a18.2,18.2,0,0,1,9.141-2.5,9.844,9.844,0,0,1,6.152,1.723,5.61,5.61,0,0,1,2.232,4.693,6.7,6.7,0,0,1-.993,3.683,10.12,10.12,0,0,1-3.173,2.944A12.273,12.273,0,0,0,1.96-11.276a1.97,1.97,0,0,0-.466,1.31v.9Zm-.756,6.152a3.249,3.249,0,0,1,.94-2.5A3.916,3.916,0,0,1-.949-6.293a3.783,3.783,0,0,1,2.7.888,3.255,3.255,0,0,1,.94,2.487A3.164,3.164,0,0,1,1.714-.439,3.832,3.832,0,0,1-.949.439a3.973,3.973,0,0,1-2.725-.87A3.144,3.144,0,0,1-4.658-2.918Z" transform="translate(35.827 48.79)" fill="#fff"/>
  </g>
</svg>
