<svg xmlns="http://www.w3.org/2000/svg" width="17.158" height="20" viewBox="0 0 17.158 20">
  <g id="mobile-money-icon" transform="translate(-45.059 -6)">
    <g id="linear_color" data-name="linear color" transform="translate(45.059 6)">
      <path id="Path_7439" data-name="Path 7439" d="M231.525,446.021h-2.038a.4.4,0,0,0,0,.8h2.038a.4.4,0,1,0,0-.8Z" transform="translate(-221.726 -428.42)" fill="#fff"/>
      <path id="Path_7440" data-name="Path 7440" d="M61.816,12.4a3.1,3.1,0,0,0-2.016.653c-.047.039-.1.083-.144.131V7.04A1.043,1.043,0,0,0,58.617,6h-9.6a1.043,1.043,0,0,0-1.04,1.04V8.1l-.05-.05a1.68,1.68,0,1,0-2.376,2.376l1.731,1.731a1.681,1.681,0,0,0-.718,2.8l.985.985a1.68,1.68,0,0,0-.985,2.855l.665.665a1.68,1.68,0,0,0-.985,2.855l1.733,1.733v.9A1.041,1.041,0,0,0,49.016,26H56.7a.4.4,0,0,0,.4-.4V21.76a2.17,2.17,0,0,1,.864-1.728L59.5,18.88a.4.4,0,0,0,.16-.32v-3.2a1.9,1.9,0,0,1,1.76-2.136V25.6a.4.4,0,1,0,.8,0V12.8A.4.4,0,0,0,61.816,12.4Zm-12.8-5.6h9.6a.24.24,0,0,1,.24.24v1.2H48.777V7.04A.24.24,0,0,1,49.016,6.8ZM45.859,9.242a.883.883,0,0,1,1.5-.622l.615.615v2.489l-1.86-1.86A.874.874,0,0,1,45.859,9.242Zm1.27,3.91a.884.884,0,0,1,1.245,0l1.81,1.81a.88.88,0,0,1-1.245,1.245l-1.81-1.81A.881.881,0,0,1,47.129,13.153ZM50.75,14.4l-.435-.435a3.441,3.441,0,1,1,.7,2.463A1.683,1.683,0,0,0,50.75,14.4Zm-3.62,2.6a.884.884,0,0,1,1.245,0l1.81,1.81a.88.88,0,0,1-1.245,1.245l-1.81-1.81A.881.881,0,0,1,47.129,16.993Zm-.32,3.52a.884.884,0,0,1,1.245,0l1.81,1.81a.88.88,0,0,1-1.245,1.245l-1.81-1.81a.881.881,0,0,1,0-1.245Zm1.967,4.447v-.4A1.679,1.679,0,0,0,50.914,22.8H56.3v2.4h-7.28A.24.24,0,0,1,48.777,24.96Zm8.7-5.568A2.974,2.974,0,0,0,56.3,21.76V22H50.631a1.679,1.679,0,0,0-.2-.244l-.665-.665a1.68,1.68,0,0,0,.985-2.855l-.985-.985a1.662,1.662,0,0,0,.692-.246,4.239,4.239,0,1,0-.831-3.733s-.793-.786-.85-.83V9.038h10.08V18.36Z" transform="translate(-45.059 -6)" fill="#fff"/>
      <path id="Path_7441" data-name="Path 7441" d="M219.543,142.528h.512a.437.437,0,0,1,0,.873H219.3a.171.171,0,0,1-.165-.2.3.3,0,1,0-.6-.011v.031a.768.768,0,0,0,.768.782h.217v.181a.3.3,0,0,0,.6,0V144a1.039,1.039,0,0,0-.06-2.075h-.512a.421.421,0,0,1,0-.843h.747a.162.162,0,0,1,.166.173.3.3,0,0,0,.6.026.768.768,0,0,0-.767-.8h-.175V140.3a.3.3,0,0,0-.6,0v.181a1.023,1.023,0,1,0,.03,2.046Z" transform="translate(-211.144 -133.902)" fill="#fff"/>
    </g>
  </g>
</svg>
