<?xml version="1.0" encoding="utf-8"?>
<!-- Generator: Adobe Illustrator 25.2.1, SVG Export Plug-In . SVG Version: 6.00 Build 0)  -->
<svg version="1.1" id="Warstwa_1" xmlns="http://www.w3.org/2000/svg" xmlns:xlink="http://www.w3.org/1999/xlink" x="0px" y="0px"
	 viewBox="0 0 18.0230007 17.9640007" style="enable-background:new 0 0 18.0230007 17.9640007;" xml:space="preserve">
<style type="text/css">
	.st0{fill:#FE2121;}
</style>
<g id="logout" transform="translate(0 -0.85)">
	<g id="Group_9586" transform="translate(0 0.85)">
		<g id="Group_9585" transform="translate(0 0)">
			<path id="Path_6823" class="st0" d="M8.9820004,16.4669991H2.2449999c-0.4128803-0.0005512-0.7474487-0.3351192-0.748-0.7479992
				V2.25c0.0005507-0.4128808,0.3351194-0.7474495,0.748-0.7480003h6.7370005c0.4142132,0,0.75-0.3357863,0.75-0.75
				s-0.3357868-0.75-0.75-0.75H2.2449999C1.0046355,0.003655-0.0000013,1.0096343,0,2.25v13.4680004
				c0.0016532,1.239193,1.0058062,2.2433472,2.2449999,2.2449989h6.7370005c0.4142132,0,0.75-0.3357868,0.75-0.75
				s-0.3357868-0.75-0.75-0.75V16.4669991z"/>
		</g>
	</g>
	<g id="Group_9588" transform="translate(5.988 4.592)">
		<g id="Group_9587">
			<path id="Path_6824" class="st0" d="M11.8129883,4.7060013L7.2619934,0.215004
				c-0.2943726-0.2902222-0.76828-0.2868652-1.0585022,0.0074997C5.913269,0.5168762,5.916626,0.9907837,6.2109985,1.2810059
				l3.2519989,3.2089996H0.748001c-0.4142151,0-0.75,0.3357849-0.75,0.75s0.3357849,0.75,0.75,0.75h8.7149963L6.2109985,9.1990051
				C5.916626,9.4892273,5.913269,9.9631348,6.2034912,10.2575073c0.2902222,0.2943649,0.7641296,0.2977219,1.0585022,0.0074997
				l4.5509949-4.4909973c0.2943726-0.2898407,0.2980347-0.7634354,0.0082092-1.0578003
				c-0.0027161-0.0027542-0.0054474-0.0054855-0.0082092-0.0082016V4.7060013z"/>
		</g>
	</g>
</g>
</svg>
