<svg xmlns="http://www.w3.org/2000/svg" width="18.53" height="16.241" viewBox="0 0 18.53 16.241">
  <g id="gallery-icon" transform="translate(0 0)">
    <g id="Group_10471" data-name="Group 10471" transform="translate(0 0)">
      <g id="Group_10470" data-name="Group 10470">
        <path id="Path_7402" data-name="Path 7402" d="M175.879,159.668a1.89,1.89,0,1,0,1.89,1.89A1.89,1.89,0,0,0,175.879,159.668Zm0,2.88a.99.99,0,1,1,0-1.98h0a.99.99,0,0,1,0,1.98Z" transform="translate(-166.495 -153.936)" fill="#06bcc1"/>
        <path id="Path_7403" data-name="Path 7403" d="M16.922,27.988l-12.286-1.4a1.687,1.687,0,0,0-1.328.383,1.71,1.71,0,0,0-.653,1.17L2.431,29.99h-.7A1.808,1.808,0,0,0,0,31.858v9.2a1.71,1.71,0,0,0,1.664,1.755H14.087a1.847,1.847,0,0,0,1.89-1.755V40.7a2.25,2.25,0,0,0,.855-.36,1.868,1.868,0,0,0,.653-1.215L18.52,29.99A1.823,1.823,0,0,0,16.922,27.988ZM15.077,41.061a.947.947,0,0,1-.99.855H1.733A.81.81,0,0,1,.9,41.13q0-.035,0-.069V39.4l3.488-2.565a1.08,1.08,0,0,1,1.4.067l2.453,2.16a2.115,2.115,0,0,0,1.328.5,2.048,2.048,0,0,0,1.08-.293L15.077,36.7v4.365Zm0-5.423L10.171,38.5a1.148,1.148,0,0,1-1.328-.112L6.369,36.2a2,2,0,0,0-2.5-.09L.9,38.271V31.858a.908.908,0,0,1,.833-.968H14.087a1.035,1.035,0,0,1,.99.968v3.78Zm2.544-5.769v.009l-1.058,9.136a.765.765,0,0,1-.293.608c-.09.09-.293.135-.293.18V31.858a1.935,1.935,0,0,0-1.89-1.868H3.331l.2-1.755a1.035,1.035,0,0,1,.338-.585,1.035,1.035,0,0,1,.675-.18l12.264,1.418A.9.9,0,0,1,17.62,29.869Z" transform="translate(0 -26.576)" fill="#06bcc1"/>
      </g>
    </g>
  </g>
</svg>
