<?xml version="1.0" encoding="utf-8"?>
<!-- Generator: Adobe Illustrator 25.2.1, SVG Export Plug-In . SVG Version: 6.00 Build 0)  -->
<svg version="1.1" id="Warstwa_1" xmlns="http://www.w3.org/2000/svg" xmlns:xlink="http://www.w3.org/1999/xlink" x="0px" y="0px"
	 viewBox="0 0 71.7160034 73.7639999" style="enable-background:new 0 0 71.7160034 73.7639999;" xml:space="preserve">
<style type="text/css">
	.st0{fill:#23BC3D;}
</style>
<g id="Group_9756" transform="translate(-529.846 -432.87)">
	<path class="st0" d="M566.5388794,467.7679749h-1.5239258c-1.550293-0.0048828-2.8149414-1.2695312-2.8198242-2.8139648
		c0.0048828-1.550293,1.2695312-2.8149414,2.8168945-2.8198242h1.5239258
		c1.550293,0.0048828,2.815918,1.2695312,2.8198242,2.8198242l2-0.0058594
		c-0.0075684-2.5656738-2.0421753-4.6560059-4.5805664-4.7894287v-3.6055908h-2v3.6054077
		c-2.536377,0.1323242-4.5725098,2.2233887-4.5800781,4.7954712c0.0078125,2.6464844,2.1674805,4.8061523,4.8168945,4.8139648
		h1.5234375c1.5507812,0.0048828,2.8164062,1.2700195,2.8203125,2.8139648
		c-0.0039062,1.5498047-1.2695312,2.8154297-2.8168945,2.8203125h-1.5234375
		c-1.550293-0.0048828-2.8154297-1.2705078-2.8203125-2.8203125l-2,0.0058594
		c0.0075684,2.5654907,2.0422974,4.6551514,4.5800781,4.7897949v3.6066895h2v-3.6063232
		c2.5368652-0.1327515,4.572998-2.2235718,4.5805664-4.7960205
		C571.3479614,469.9359436,569.1887817,467.7767639,566.5388794,467.7679749z"/>
	<path class="st0" d="M565.7752075,487.0321045c-10.0708008,0-18.2641602-8.1933594-18.2641602-18.2641602
		s8.1933594-18.2641602,18.2641602-18.2641602s18.2641602,8.1933594,18.2641602,18.2641602
		S575.8460083,487.0321045,565.7752075,487.0321045z M565.7752075,452.5037842
		c-8.9682617,0-16.2641602,7.2958984-16.2641602,16.2641602s7.2958984,16.2641602,16.2641602,16.2641602
		s16.2641602-7.2958984,16.2641602-16.2641602S574.7434692,452.5037842,565.7752075,452.5037842z"/>
	<path class="st0" d="M591.1809692,463.5291748c-0.0351562-11.9179688-9.7597656-21.6416016-21.6767578-21.6762695h-25.2192383
		v-5.2182617l-10.9589844,7.3076172l10.9589844,8.2583008v-4.9155273h10.8071289v2.0136719h-8.793457v6.940918
		l-16.4521484-12.3979492l16.4521484-10.9707031v6.9682617h23.2084961
		c13.0244141,0.0375977,23.6494141,10.6621094,23.6875,23.684082L591.1809692,463.5291748z"/>
	<rect x="557.1360474" y="447.3699951" class="st0" width="3.1308594" height="2.0136719"/>
	<path class="st0" d="M585.1077271,506.633667v-6.9667969h-23.206543
		c-13.0244141-0.0380859-23.6489258-10.6630859-23.6870117-23.6835938l2.0136719-0.0058594
		c0.0351562,11.9169922,9.7587891,21.640625,21.6762695,21.6757812h25.2172852v5.2167969l10.9599609-7.3066406
		l-10.9599609-8.2587891v4.9150391h-10.8066406v-2.0136719h8.7929688v-6.9404297l16.4541016,12.3974609L585.1077271,506.633667z"/>
	<rect x="571.1399536" y="490.1209717" class="st0" width="3.1308594" height="2.0136719"/>
</g>
</svg>
