<svg xmlns="http://www.w3.org/2000/svg" width="20.683" height="20.683" viewBox="0 0 20.683 20.683">
  <g id="Icon_ionic-ios-menu" data-name="Icon ionic-ios-menu" transform="translate(-6.5 -6.125)">
    <path id="Path_6807" data-name="Path 6807" d="M30.375,12.375H5.625A1.128,1.128,0,0,1,4.5,11.25h0a1.128,1.128,0,0,1,1.125-1.125h24.75A1.128,1.128,0,0,1,31.5,11.25h0A1.128,1.128,0,0,1,30.375,12.375Z" transform="translate(-3.842 21.239) rotate(-45)" fill="#72809d"/>
    <path id="Path_6809" data-name="Path 6809" d="M30.375,25.875H5.625A1.128,1.128,0,0,1,4.5,24.75h0a1.128,1.128,0,0,1,1.125-1.125h24.75A1.128,1.128,0,0,1,31.5,24.75h0A1.128,1.128,0,0,1,30.375,25.875Z" transform="translate(21.614 -13.762) rotate(45)" fill="#72809d"/>
  </g>
</svg>
