<?xml version="1.0" encoding="utf-8"?>
<!-- Generator: Adobe Illustrator 25.2.1, SVG Export Plug-In . SVG Version: 6.00 Build 0)  -->
<svg version="1.1" id="Warstwa_1" xmlns="http://www.w3.org/2000/svg" xmlns:xlink="http://www.w3.org/1999/xlink" x="0px" y="0px"
	 viewBox="0 0 19.4580002 22.2380009" style="enable-background:new 0 0 19.4580002 22.2380009;" xml:space="preserve">
<style type="text/css">
	.st0{fill:#253F50;}
</style>
<g id="Group_9594" transform="translate(0 0)">
	<path class="st0" d="M13.6679688,13.5615482h-2.3349609v-2.4423828c0-0.2763672-0.2236328-0.5-0.5-0.5s-0.5,0.2236328-0.5,0.5
		v2.4423828H7.8901367c-0.2763672,0-0.5,0.2236328-0.5,0.5s0.2236328,0.5,0.5,0.5h2.4428711v1.9824219
		c0,0.2763672,0.2236328,0.5,0.5,0.5s0.5-0.2236328,0.5-0.5v-1.9824219h2.3349609c0.2763672,0,0.5-0.2236328,0.5-0.5
		S13.9443359,13.5615482,13.6679688,13.5615482z"/>
	<path id="Icon_metro-files-empty" class="st0" d="M18.5419998,7.7549996c-0.5773773-0.7668495-1.2100658-1.4904461-1.8929996-2.165
		c-0.6745834-0.6829033-1.3981762-1.315589-2.164999-1.8930001c-0.5427818-0.5096521-1.2353325-0.8308544-1.9750004-0.9159999
		H4.5169997c-0.9584723,0.001101-1.7353473,0.7775292-1.737,1.7360005v15.9840012
		c0.0011024,0.9588623,0.7781386,1.7358971,1.737,1.7369995h13.1999989
		c0.9588623-0.0011024,1.7358971-0.7781372,1.7369995-1.7369995V9.7290001
		c-0.085146-0.7396679-0.4063492-1.4322186-0.9160004-1.9750009L18.5419998,7.7549996z M15.6660004,6.572
		c0.5616417,0.555584,1.0880013,1.1457348,1.5760002,1.7670007h-3.3410015V4.9959998
		C14.5216026,5.4840369,15.1110859,6.010397,15.6660004,6.572z M18.066,20.5010014
		c-0.0026875,0.1905193-0.1564808,0.3443127-0.3470001,0.3470001H4.5169997
		c-0.1905184-0.0026875-0.3443127-0.1564808-0.3470001-0.3470001V4.5170002
		c0.0037556-0.1897373,0.1572447-0.3423419,0.3470001-0.3450003h7.9919991v4.8650007
		c0.0027237,0.3827038,0.3122959,0.692276,0.6949997,0.6949997h4.8649998L18.066,20.5010014z M11.7010002,0.9160001
		c-0.5427818-0.5096519-1.2353325-0.8308547-1.9750004-0.916H1.737C0.7785287,0.001653,0.0021009,0.778528,0.0009999,1.737
		v15.9840012c0.0021014,0.8243999,0.5824461,1.5341759,1.3899999,1.7000008V1.737
		c0.0026875-0.1905186,0.1564817-0.3443127,0.3470001-0.3470001h10.572999
		c-0.2089996-0.1719999-0.4130001-0.3310001-0.6070004-0.474L11.7010002,0.9160001z"/>
</g>
</svg>
