<?xml version="1.0" encoding="utf-8"?>
<!-- Generator: Adobe Illustrator 25.2.1, SVG Export Plug-In . SVG Version: 6.00 Build 0)  -->
<svg version="1.1" id="Warstwa_1" xmlns="http://www.w3.org/2000/svg" xmlns:xlink="http://www.w3.org/1999/xlink" x="0px" y="0px"
	 viewBox="0 0 121.0199966 43.7190018" style="enable-background:new 0 0 121.0199966 43.7190018;" xml:space="preserve">
<style type="text/css">
	.st0{fill:#253F50;}
	.st1{fill:#72809D;}
</style>
<g id="Group_9733" transform="translate(-0.931 -11.711)">
	<path id="Path_6865" class="st0" d="M2.358,33.507h4.915v-8.1239986h6.7069993v-3.7089996H7.2730002v-4.8910007h8.4689999
		v-4.2649994H2.358V33.507z M17.9979992,33.507h12.9200001v-4.2649994H22.882V12.5200005h-4.8840008V33.507z M45.5690002,23.7400017
		c2.2566948-0.696352,3.7234993-2.8707504,3.5239983-5.223999c0-3.1219997-1.8849983-6-6-6H32.8649979v20.9869995h4.8839989
		v-8.0359993h3.0600014c1.5760002,0,2.0400009,0.618,2.5,2.1000004l1.0820007,3.6779995
		c0.3709984,1.762001,1.2050018,2.2560005,2.6269989,2.2560005h3.5550003v-1.6070004
		c-0.5559998,0-0.8349991-0.3400002-1.0200005-0.927l-1.144001-3.6779995
		c-0.6489983-2.2560005-1.6069984-3.0909996-2.8440018-3.4619999L45.5690002,23.7400017z M37.7490005,16.6000023h3.8950005
		c1.3052673-0.0976658,2.4425659,0.8812866,2.5402336,2.186552c0.0103035,0.1377068,0.0085526,0.2760487-0.0052338,0.4134483
		c0.1753502,1.284296-0.723629,2.4675751-2.0079231,2.6429253c-0.163044,0.0222607-0.3279762,0.0273132-0.4920769,0.0150738
		h-3.9300003V16.6000023z M61.1490021,12.2110023c-5.9350014,0-9.3649979,4.7600002-9.3649979,10.9109993
		c0,5.8999996,3.4309998,10.6949997,9.3649979,10.6949997c2.703804,0.0586433,5.3031387-1.044075,7.1399994-3.0290012
		l-1.2050018-2.657999c-1.2388916,1.9592438-3.3699722,3.1752377-5.6870003,3.2449989
		c-4.2350006,0-6.6150017-3.8949986-6.6150017-8.2529984c0-4.7600002,2.3180008-8.4689999,6.6149979-8.4689999
		c2.3205566,0.0571651,4.4571609,1.2763119,5.6869965,3.2450008l1.2050018-2.6580009
		c-1.8300247-1.9958115-4.4351273-3.100666-7.1419945-3.0289993H61.1490021z M83.5579987,33.5110016v-8.0670013
		c0-5.9349995-2.4110031-7.387001-5.3779984-7.387001c-2.0230103-0.0283356-3.8743134,1.1331844-4.7289963,2.9669991v-8.5
		h-2.7840042v20.9869995h2.7819977v-7.9130001c0-4.1999989,2.1640015-5.2240009,3.8000031-5.2240009
		c2.0999985,0,3.5550003,1.0200005,3.5550003,5.223999v7.9129982L83.5579987,33.5110016z M87.1429977,23.0950012
		c1.3397675-1.6365891,3.2984619-2.644001,5.4089966-2.7819996c1.6380005,0,2.6579971,0.7999992,2.6579971,2.5
		c0,0.8999996-0.3089981,1.2049999-1.7310028,1.6070004l-2.875,0.7420006
		c-2.8130035,0.7110004-4.6669998,1.8850002-4.6669998,4.4820004c-0.1384583,2.1671638,1.506134,4.0362415,3.6733017,4.1746998
		c0.1754074,0.0112038,0.3513641,0.0106392,0.5266953-0.0017014c2.044426-0.0953827,3.9286728-1.1346703,5.0999985-2.8129978
		c0.0930023,1.9779987,0.7730026,2.8129978,2.348999,2.8129978c0.6500626-0.0119362,1.2951431-0.1159706,1.9160004-0.3089981
		l0.1240005-2.4419994c-0.2870102,0.2463894-0.6433868,0.3976746-1.0199966,0.4329987
		c-0.586998,0-0.7109985-0.5559998-0.7109985-1.2999992v-6.6450005c0-3.493-1.2669983-5.5-4.9449997-5.5
		c-2.3240967,0.0146351-4.5641174,0.8712044-6.3050003,2.4109993L87.1429977,23.0950012z M88.75,29.4310017
		c0-1.4220009,0.7419968-2.1000004,2.5650024-2.657999l2.2870026-0.6800003
		c0.5815811-0.1372547,1.1219254-0.4115429,1.5759964-0.7999992v3.6779995
		c-0.8749924,1.5227699-2.4266052,2.5341244-4.1729965,2.7199993c-1.1622925,0.083971-2.1725845-0.7901821-2.2565536-1.9524746
		c-0.0074921-0.103714-0.007309-0.20784,0.0005493-0.3115273L88.75,29.4310017z M101.7630005,33.5110016h2.7509995V18.3620014
		h-2.7509995V33.5110016z M101.7630005,15.7110023h2.7509995v-2.8440018h-2.7509995V15.7110023z M120.8959961,33.5110016v-8.0670013
		c0-5.9349995-2.4110031-7.387001-5.3779984-7.387001c-2.0230103-0.0283356-3.8743134,1.1331844-4.7289963,2.9669991v-2.6580009
		h-2.7819977v15.1450005h2.7819977v-7.9130001c0-4.1999989,2.1640015-5.2240009,3.8000031-5.2240009
		c2.0999985,0,3.5550003,1.0200005,3.5550003,5.223999v7.9129982L120.8959961,33.5110016z"/>
	<path id="Path_6866" class="st1" d="M2.2240002,50.9639969C2.6299341,51.8178787,3.5019364,52.3513565,4.447,52.3239975
		c1.4000001,0,2.8070002-1.0449982,2.8070002-3.5849991c0-2.394001-1.388-3.5699997-2.8049998-3.5699997
		c-0.9519882-0.0531464-1.8375242,0.4883652-2.224,1.3600006V45.310997H1.431v9.4780006h0.793L2.2240002,50.9639969z
		 M4.2920003,51.6159973c-1.3179998,0-2.0680001-1.1329994-2.0680001-2.8999977
		c0-1.7280006,0.7509999-2.8330002,2.0680001-2.8330002c1.3740001,0,2.0999999,1.1049995,2.0999999,2.8330002
		c-0.0030003,1.7630005-0.7249999,2.8989983-2.099,2.8989983L4.2920003,51.6159973z M11.2480001,51.6159973
		c-1.3739996,0-2.0999994-1.1619987-2.0999994-2.8619995c0-1.757,0.7220001-2.8759995,2.1000004-2.8759995
		c1.3319998,0,2.0679998,1.1189995,2.0679998,2.8759995c0.0009995,1.7000008-0.736001,2.8610001-2.0690012,2.8610001
		L11.2480001,51.6159973z M11.2480001,52.3239975c1.8839998,0,2.9329996-1.4729996,2.9329996-3.5699997
		s-1.0479994-3.5849991-2.934-3.5849991s-2.9589996,1.473999-2.9589996,3.5849991s1.059,3.5699997,2.9589996,3.5699997H11.2480001z
		 M16.6879997,52.1819992H17.566l2.039999-5.8790016l2.0550003,5.8759995h0.8929996l1.7849998-6.8709984h-0.8500004
		l-1.3749981,5.8540001l-2.1000004-5.8510017h-0.7789993l-2.0790005,5.8510017l-1.3739996-5.8510017h-0.8780003
		L16.6879997,52.1819992z M28.1209984,51.6149979c-1.4589996,0-2.2000008-0.9069977-2.2000008-2.6489983h4.5900002
		c0.0681496-0.2781448,0.101738-0.563633,0.1000004-0.8500023c0.1706734-1.4468956-0.8639107-2.758194-2.3108063-2.9288673
		c-0.0983124-0.0115967-0.1972008-0.0176506-0.2961941-0.0181313c-1.6289997,0-2.9470005,1.1619987-2.9470005,3.7399979
		c0,2.2380028,1.1900005,3.4140015,3.0179996,3.4140015c0.8977852,0.0066185,1.7623558-0.339138,2.4080009-0.9630013
		l-0.2689991-0.8219986C29.7252007,51.2069626,28.9494667,51.6061325,28.1209984,51.6149979z M27.9790001,45.8789978
		c1.2329998,0,1.8700008,1.0340004,1.7999992,2.3660011h-3.868c-0.1088219-1.1940613,0.7709408-2.2502556,1.9650021-2.3590775
		C27.9102745,45.8827972,27.9446163,45.8804893,27.9790001,45.8789978z M32.0019989,52.178997h0.8069992v-3.3999977
		c0-1.3600006,0.1269989-2.7630005,1.7709999-2.7630005c0.1909218,0.004364,0.3809013,0.0281563,0.5670013,0.0709991
		l0.0419998-0.9210014c-1.5999985,0-2.0999985,0.6230011-2.3800011,1.4309998v-1.2889977h-0.8069992V52.178997z
		 M38.6019974,51.6119995c-1.4589996,0-2.2000008-0.9070015-2.2000008-2.6490021h4.5900002
		c0.0681496-0.2781448,0.1017342-0.563633,0.0999985-0.8499985c0.1706734-1.4468956-0.8639107-2.758194-2.3108063-2.9288673
		c-0.0983124-0.0115967-0.1972008-0.0176506-0.2961922-0.0181351c-1.6290016,0-2.9469986,1.1620026-2.9469986,3.7400017
		c0,2.237999,1.1899986,3.4140015,3.0180016,3.4140015c0.8977852,0.0066185,1.7623558-0.339138,2.4080009-0.9630013
		l-0.269001-0.8219986c-0.4877434,0.6695328-1.2627068,1.0698051-2.0909996,1.079998L38.6019974,51.6119995z M38.4630013,45.8789978
		c1.2330017,0,1.8699989,1.0340004,1.7999992,2.3660011H36.394001c-0.108799-1.1940651,0.7709846-2.2502403,1.9650497-2.3590393
		C38.3936386,45.8828087,38.428299,45.8804855,38.4630013,45.8789978z M47.1330032,46.5169983
		c-0.4051476-0.8533249-1.280098-1.3828583-2.223999-1.3460007c-1.4169998,0-2.8050003,1.0340004-2.8050003,3.5699997
		c0,2.394001,1.3880005,3.5839996,2.8050003,3.5839996c0.9539986,0.043251,1.8368874-0.5029984,2.2239952-1.3759995v1.2299995
		h0.7929993v-9.6189995h-0.7929993L47.1330032,46.5169983z M45.0639992,45.8789978
		c1.3170013,0,2.0680008,1.1189995,2.0680008,2.8899994c0,1.7280006-0.7509995,2.8480034-2.0680008,2.8480034
		c-1.3740005,0-2.0999985-1.1190033-2.0999985-2.8480034C42.9679985,46.9969978,43.6899986,45.8789978,45.0639992,45.8789978z
		 M53.4790001,42.5639992h-0.7929993v9.6149979h0.7929993v-1.2299995c0.3818626,0.8773193,1.2685432,1.4251175,2.223999,1.3740005
		c1.4169998,0,2.8050003-1.1899986,2.8050003-3.5839996c0-2.5359993-1.4000015-3.5699997-2.8050003-3.5699997
		c-0.9429398-0.0331535-1.8160133,0.4952431-2.223999,1.3460007V42.5639992z M55.5470009,45.8789978
		c1.3740005,0,2.0999985,1.1189995,2.0999985,2.8899994c0,1.7280006-0.7220001,2.8480034-2.0999985,2.8480034
		c-1.3180008,0-2.0680008-1.1190033-2.0680008-2.8480034C53.4790001,46.9969978,54.2299995,45.8789978,55.5470009,45.8789978z
		 M61.8800011,51.9790001l-0.5239983,1.4309998c-0.2410011,0.6380005-0.5810013,0.8079987-0.9490013,0.8079987
		c-0.3886833-0.039917-0.75037-0.2172165-1.0200005-0.5v0.8779984c0.3060303,0.2168388,0.6729698,0.330986,1.0480003,0.3260002
		c0.7950859-0.0638237,1.4613266-0.6267281,1.6570015-1.3999977l3.0599976-8.2170029H64.302002l-2.0680008,5.8740005
		l-2.4080009-5.8649979h-0.8499985L61.8800011,51.9790001z M72.8740005,43.1289978
		c1.2052231,0.0045776,2.3342209,0.5902977,3.0319977,1.5730019l0.3539963-0.8500023
		c-0.9020462-0.9119644-2.1302795-1.4269371-3.4129944-1.4309998c-2.5360031,0-4.3069992,2.012001-4.3069992,5.0149994
		c0,3.2160034,1.8280029,4.8880005,4.4199982,4.8880005c1.2747803,0.0166321,2.5090485-0.4475136,3.4570007-1.2999992v-3.6829987
		H72.677002v0.7080002h2.9609985v2.6069984c-0.7421341,0.6322517-1.6881332,0.9743462-2.663002,0.9630013
		c-2.1529999,0-3.5839996-1.4169998-3.5839996-4.1790009C69.3889999,44.8009987,70.8899994,43.1289978,72.8740005,43.1289978z
		 M77.973999,47.2519989c0.5598221-0.7985611,1.449295-1.3027916,2.4220047-1.3730011
		c0.68116-0.0897255,1.3060837,0.3897209,1.395813,1.0708809c0.0126266,0.0958824,0.0140381,0.1929092,0.0041885,0.2891197
		c0,0.4389992-0.1269989,0.5999985-0.8499985,0.8079987l-1.3600006,0.3540001
		c-1.1999969,0.3120003-2.0400009,0.8640022-2.0400009,2.012001c-0.064064,0.9920464,0.6882172,1.8481903,1.6802673,1.9122505
		c0.0731583,0.0047264,0.1465454,0.0049744,0.2197342,0.0007477c0.9574356-0.0627823,1.8293152-0.5730209,2.3529968-1.3769989
		c0,0.9780006,0.3000031,1.3740005,0.9349976,1.3740005c0.196373-0.00494,0.3914413-0.0334778,0.5810013-0.0849991
		l0.0569992-0.8360023c-0.1236267,0.1186562-0.2827606,0.1934814-0.4530029,0.2130013
		c-0.2829971,0-0.3259964-0.2999992-0.3259964-0.6520004V47.605999c0-1.5439987-0.538002-2.4370003-2.0999985-2.4370003
		c-1.0226974,0.010067-1.9962082,0.4404106-2.6920013,1.1899986L77.973999,47.2519989z M78.3990021,50.4249992
		c0-0.7229996,0.3820038-1.0909996,1.3320007-1.3740005l1.2319946-0.3720016
		c0.3128128-0.061039,0.602356-0.2082367,0.8359985-0.4249992v1.8699989
		c-0.4564362,0.8270607-1.2853546,1.3816605-2.223999,1.4880028c-0.6171417,0.0326729-1.1439209-0.4411354-1.1765976-1.0582771
		C78.3961334,50.5108376,78.3963318,50.4678612,78.3990021,50.4249992z M84.5039978,52.178997h0.7929993v-6.8709984h-0.7929993
		V52.178997z M84.5039978,43.9789963h0.7929993v-1.0999985h-0.7929993V43.9789963z M87.0540009,47.2519989
		c0.5600357-0.7988205,1.4499283-1.3030815,2.4229965-1.3730011c0.68116-0.0897255,1.3060837,0.3897209,1.395813,1.0708809
		c0.0126266,0.0958824,0.0140381,0.1929092,0.0041885,0.2891197c0,0.4389992-0.1269989,0.5999985-0.8499985,0.8079987
		l-1.3600006,0.3540001c-1.1999969,0.3120003-2.0400009,0.8640022-2.0400009,2.012001
		c-0.064064,0.9920464,0.6882172,1.8481903,1.6802673,1.9122505c0.0731583,0.0047264,0.1465454,0.0049744,0.2197342,0.0007477
		c0.9570694-0.0630913,1.8285294-0.5732918,2.3519974-1.3769989c0,0.9780006,0.3000031,1.3740005,0.9349976,1.3740005
		c0.196373-0.00494,0.3914413-0.0334778,0.5810013-0.0849991l0.0569992-0.8360023
		c-0.1236267,0.1186562-0.2827606,0.1934814-0.4530029,0.2130013c-0.2829971,0-0.3259964-0.2999992-0.3259964-0.6520004V47.605999
		c0-1.5439987-0.538002-2.4370003-2.0999985-2.4370003c-1.0226974,0.010067-1.9962082,0.4404106-2.6920013,1.1899986
		L87.0540009,47.2519989z M87.4790039,50.4249992c0-0.7229996,0.3830032-1.0909996,1.3320007-1.3740005l1.2359924-0.3720016
		c0.3128128-0.061039,0.602356-0.2082367,0.8359985-0.4249992v1.8699989
		c-0.4564362,0.8270607-1.2853546,1.3816605-2.223999,1.4880028c-0.6170197,0.0348854-1.1455002-0.4370232-1.1803894-1.0540466
		C87.4761047,50.5136681,87.4762344,50.4692688,87.4790039,50.4249992z M96.0920029,52.3249969
		c0.9342804,0.0165977,1.8217545-0.4080582,2.3949966-1.1459999l-0.3539963-0.7509995
		c-0.4547729,0.6956711-1.2105942,1.1365662-2.0400009,1.1900024c-1.1999969,0-2.012001-1.0480003-2.012001-2.8480034
		c0-1.6999969,0.7220001-2.8899994,2.012001-2.8899994c0.8307495,0.0223656,1.589325,0.4775085,2,1.2000008l0.4000015-0.7649994
		c-0.5760193-0.7341766-1.4608841-1.1584969-2.3939972-1.1480026c-1.7419968,0-2.8899994,1.3320007-2.8899994,3.5839996
		c0,2.2520027,1.1269913,3.5730019,2.8839951,3.5730019L96.0920029,52.3249969z M105.215004,52.1829987V48.612999
		c0-2.7910004-1.1190033-3.4430008-2.4369965-3.4430008c-0.9422226-0.0093193-1.8027191,0.533577-2.1999969,1.3880005v-4h-0.8079987
		v9.6209984h0.8079987v-3.5699997c0-2.237999,1.1760025-2.7340012,2-2.7340012c1.0770035,0,1.8420029,0.5,1.8420029,2.7340012
		v3.5699997L105.215004,52.1829987z M106.887001,47.2529984c0.5596085-0.7989388,1.4491119-1.3035507,2.4219971-1.3740005
		c0.6817932-0.0891075,1.3067398,0.3913612,1.3958435,1.0731583c0.0124359,0.0951347,0.0138321,0.1913872,0.004158,0.2868423
		c0,0.4389992-0.1279984,0.5999985-0.8499985,0.8079987l-1.3600006,0.3540001
		c-1.1999969,0.3120003-2.0400009,0.8640022-2.0400009,2.012001c-0.064064,0.9920464,0.6882172,1.8481903,1.6802673,1.9122505
		c0.0731583,0.0047264,0.1465454,0.0049744,0.2197342,0.0007477c0.9565201-0.0624084,1.8278656-0.571434,2.3519974-1.3739967
		c0,0.9779968,0.3000031,1.3739967,0.9349976,1.3739967c0.196373-0.0049362,0.3914413-0.033474,0.5810013-0.0849991
		l0.0569992-0.8359985c-0.1236267,0.1186562-0.2827606,0.1934814-0.4530029,0.2129974
		c-0.2829971,0-0.3259964-0.2999992-0.3259964-0.6519966V47.605999c0-1.5439987-0.538002-2.4370003-2.0999985-2.4370003
		c-1.0226974,0.010067-1.9962082,0.4404106-2.6920013,1.1899986L106.887001,47.2529984z M107.3120041,50.4259987
		c0-0.7229996,0.3830032-1.0909996,1.3320007-1.3740005l1.2329941-0.3730011
		c0.3127899-0.0610886,0.6023254-0.2082787,0.8359985-0.4249992v1.8699989
		c-0.4564362,0.8270607-1.2853546,1.3816605-2.223999,1.4880028c-0.6171417,0.0326729-1.1439209-0.4411354-1.1765976-1.0582771
		c-0.0022659-0.0428848-0.0020676-0.0858612,0.0006027-0.1287231L107.3120041,50.4259987z M113.4189987,52.178997h0.7929993
		v-6.8709984h-0.7929993V52.178997z M113.4189987,43.9789963h0.7929993v-1.0999985h-0.7929993V43.9789963z M121.4469986,52.178997
		v-3.5699997c0-2.7910004-1.1190033-3.4430008-2.4369965-3.4430008c-0.9422226-0.0093193-1.8027191,0.5335808-2.1999969,1.3880005
		v-1.2469978h-0.8079987v6.8719978h0.8079987v-3.5699997c0-2.237999,1.1760025-2.7340012,2-2.7340012
		c1.0770035,0,1.8420029,0.5,1.8420029,2.7340012v3.5699997H121.4469986z"/>
</g>
</svg>
