<?xml version="1.0" encoding="utf-8"?>
<!-- Generator: Adobe Illustrator 25.2.1, SVG Export Plug-In . SVG Version: 6.00 Build 0)  -->
<svg version="1.1" id="Group_5978" xmlns="http://www.w3.org/2000/svg" xmlns:xlink="http://www.w3.org/1999/xlink" x="0px" y="0px"
	 viewBox="0 0 16 16" style="enable-background:new 0 0 16 16;" xml:space="preserve">
<style type="text/css">
	.st0{fill:none;}
	.st1{fill:#23BC3D;}
</style>
<g id="Rectangle_3">
	<path class="st0" d="M3,0h10c1.6568546,0,3,1.3431456,3,3v10c0,1.6568546-1.3431454,3-3,3H3c-1.6568544,0-3-1.3431454-3-3V3
		C0,1.3431456,1.3431456,0,3,0z"/>
	<path class="st1" d="M13,16H3c-1.6542969,0-3-1.3457031-3-3V3c0-1.6542969,1.3457031-3,3-3h10c1.6542969,0,3,1.3457031,3,3v10
		C16,14.6542969,14.6542969,16,13,16z M3,2C2.4487305,2,2,2.4487305,2,3v10c0,0.5517578,0.4487305,1,1,1h10
		c0.5517578,0,1-0.4482422,1-1V3c0-0.5512695-0.4482422-1-1-1H3z"/>
</g>
</svg>
