<?xml version="1.0" encoding="utf-8"?>
<!-- Generator: Adobe Illustrator 25.2.1, SVG Export Plug-In . SVG Version: 6.00 Build 0)  -->
<svg version="1.1" id="Warstwa_1" xmlns="http://www.w3.org/2000/svg" xmlns:xlink="http://www.w3.org/1999/xlink" x="0px" y="0px"
	 viewBox="0 0 15.9519997 28.5809994" style="enable-background:new 0 0 15.9519997 28.5809994;" xml:space="preserve">
<style type="text/css">
	.st0{fill:#23BC3D;}
</style>
<path class="st0" d="M15.503418,14.4690609c0.0110474-0.0599365,0.032959-0.1177368,0.032959-0.1785278
	s-0.0219116-0.1185913-0.032959-0.1785278c-0.012207-0.0666504-0.0146484-0.1342163-0.0404663-0.1977539
	c-0.0211182-0.0519409-0.0628052-0.0945435-0.0930176-0.1430054c-0.038147-0.0613403-0.0653076-0.1276855-0.117981-0.1813965
	c-0.0027466-0.0028076-0.0065308-0.0036011-0.0093384-0.0063477c-0.0018921-0.0018921-0.0024414-0.0044556-0.0043335-0.0063477
	L2.1152344,0.700201C1.7216797,0.3139706,1.0878906,0.3183651,0.7011719,0.7138729
	c-0.3867188,0.394043-0.3808594,1.0273438,0.0136719,1.4140625l12.3950195,12.1625977L0.7148438,26.4531307
	c-0.3945312,0.3867188-0.4003906,1.0205078-0.0136719,1.4140625c0.1958008,0.2001953,0.4545898,0.2998047,0.7138672,0.2998047
	c0.2529297,0,0.5058594-0.0957031,0.7001953-0.2861328L15.2382812,15.003912
	c0.0018921-0.0018921,0.0024414-0.0045166,0.0043335-0.0064087c0.0027466-0.0027466,0.0065918-0.003479,0.0093384-0.0062866
	c0.0526733-0.0537109,0.079834-0.1200562,0.117981-0.1813965c0.0302124-0.0484619,0.0718994-0.0910645,0.0930176-0.1430054
	C15.4887695,14.6032772,15.4912109,14.5357113,15.503418,14.4690609z"/>
</svg>
