<?xml version="1.0" encoding="utf-8"?>
<!-- Generator: Adobe Illustrator 25.2.1, SVG Export Plug-In . SVG Version: 6.00 Build 0)  -->
<svg version="1.1" id="Group_9702" xmlns="http://www.w3.org/2000/svg" xmlns:xlink="http://www.w3.org/1999/xlink" x="0px" y="0px"
	 viewBox="0 0 328 90" style="enable-background:new 0 0 328 90;" xml:space="preserve">
<style type="text/css">
	.st0{fill:#23BC3D;}
	.st1{opacity:0.2;enable-background:new    ;}
	.st2{fill:#3F3D56;}
</style>
<g id="Group_5987" transform="translate(147.568)">
	<g id="Group_5977">
		<ellipse id="Ellipse_526" class="st0" cx="101.2" cy="52.7" rx="14.4" ry="14.4"/>
		<ellipse id="Ellipse_1453" class="st0" cx="14.4" cy="52.7" rx="14.4" ry="14.4"/>
		<ellipse id="Ellipse_1451" class="st0" cx="129.4" cy="44.2" rx="17.9" ry="17.9"/>
		<ellipse id="Ellipse_1454" class="st0" cx="42.6" cy="44.2" rx="17.9" ry="17.9"/>
		<ellipse id="Ellipse_1452" class="st0" cx="162.6" cy="44.2" rx="17.9" ry="17.9"/>
		<ellipse id="Ellipse_1456" class="st0" cx="75.7" cy="44.2" rx="17.9" ry="17.9"/>
		<path id="Path_5494" class="st1" d="M111.9,42.9c3.1,7.3-0.3,15.8-7.6,18.9c-5.7,2.4-12.3,1-16.4-3.7c3.1,7.3,11.6,10.7,18.9,7.6
			c7.3-3.1,10.7-11.6,7.6-18.9C113.8,45.4,112.9,44.1,111.9,42.9z"/>
		<path id="Path_6795" class="st1" d="M25.1,42.9c3.1,7.3-0.3,15.8-7.6,18.9c-5.7,2.4-12.3,1-16.4-3.7c3.1,7.3,11.6,10.7,18.9,7.6
			c7.3-3.1,10.7-11.6,7.6-18.9C27,45.4,26.1,44.1,25.1,42.9z"/>
		<path id="Path_5495" class="st2" d="M101.2,49.2L101.2,49.2L102,90h-1.5L101.2,49.2z"/>
		<path id="Path_6797" class="st2" d="M14.4,49.2L14.4,49.2L15.2,90h-1.5L14.4,49.2z"/>
		<path id="Path_6790" class="st2" d="M129.5,39.3L129.5,39.3l0.9,50.7h-1.9L129.5,39.3z"/>
		<path id="Path_6798" class="st2" d="M42.7,39.3L42.7,39.3L43.6,90h-1.9L42.7,39.3z"/>
		<path id="Path_6792" class="st2" d="M162.6,39.3L162.6,39.3l0.9,50.7h-1.9L162.6,39.3z"/>
		<path id="Path_6801" class="st2" d="M75.8,39.3L75.8,39.3L76.7,90h-1.9L75.8,39.3z"/>
		
			<rect id="Rectangle_3887" x="101.1" y="72.5" transform="matrix(0.8848 -0.4659 0.4659 0.8848 -22.12 56.1372)" class="st2" width="2.7" height="0.7"/>
		
			<rect id="Rectangle_5251" x="14.3" y="72.5" transform="matrix(0.8848 -0.4659 0.4659 0.8848 -32.1169 15.6951)" class="st2" width="2.7" height="0.7"/>
		
			<rect id="Rectangle_5247" x="129.4" y="69" transform="matrix(0.8848 -0.4659 0.4659 0.8848 -17.2425 69.0474)" class="st2" width="3.3" height="0.9"/>
		
			<rect id="Rectangle_5250" x="42.6" y="69" transform="matrix(0.8848 -0.4659 0.4659 0.8848 -27.2394 28.6053)" class="st2" width="3.3" height="0.9"/>
		
			<rect id="Rectangle_5248" x="162.5" y="69" transform="matrix(0.8848 -0.4659 0.4659 0.8848 -13.4272 84.4821)" class="st2" width="3.3" height="0.9"/>
		
			<rect id="Rectangle_5252" x="75.7" y="69" transform="matrix(0.8848 -0.4659 0.4659 0.8848 -23.4239 44.0405)" class="st2" width="3.3" height="0.9"/>
		<ellipse id="Ellipse_527" class="st0" cx="143.5" cy="34.8" rx="21.9" ry="21.9"/>
		<ellipse id="Ellipse_1455" class="st0" cx="56.7" cy="34.8" rx="21.9" ry="21.9"/>
		<path id="Path_5496" class="st1" d="M159.8,19.4c4.7,11.1-0.4,24-11.5,28.7c-8.6,3.7-18.7,1.5-24.9-5.6
			C128,53.6,140.9,58.8,152,54c11.1-4.7,16.3-17.6,11.5-28.7C162.6,23.2,161.3,21.1,159.8,19.4z"/>
		<path id="Path_6796" class="st1" d="M72.9,19.4c4.7,11.1-0.4,24-11.5,28.7c-8.6,3.7-18.7,1.5-24.9-5.6
			C41.2,53.6,54.1,58.8,65.2,54c11.1-4.7,16.3-17.6,11.5-28.7C75.8,23.2,74.5,21.1,72.9,19.4z"/>
		<path id="Path_5497" class="st2" d="M143.5,27.9L143.5,27.9l1.1,62h-2.3L143.5,27.9z"/>
		<path id="Path_6800" class="st2" d="M56.7,27.9L56.7,27.9l1.1,62h-2.3L56.7,27.9z"/>
		
			<rect id="Rectangle_3888" x="143.4" y="64.2" transform="matrix(0.8848 -0.4659 0.4659 0.8848 -13.4309 75.233)" class="st2" width="4.1" height="1.1"/>
		
			<rect id="Rectangle_5249" x="56.6" y="64.2" transform="matrix(0.8848 -0.4659 0.4659 0.8848 -23.4277 34.7915)" class="st2" width="4.1" height="1.1"/>
		<path id="Path_5500" class="st2" d="M111.6,1.7l2-1.6c-1.1-0.2-2.1,0.4-2.5,1.4c-0.9-0.3-1.8-0.2-2.6,0.2l4.1,1.5
			C112.4,2.5,112,2,111.6,1.7z"/>
		<path id="Path_5501" class="st2" d="M9,9.9l2-1.6C10,8,8.9,8.6,8.6,9.6C7.7,9.3,6.8,9.4,6,9.8l4.1,1.5C9.8,10.7,9.5,10.2,9,9.9z"
			/>
		<path id="Path_5502" class="st2" d="M142.6,17.2l2-1.6c-1.1-0.2-2.1,0.4-2.5,1.4c-0.9-0.3-1.8-0.2-2.6,0.2l4.1,1.5
			C143.5,18.1,143.1,17.6,142.6,17.2z"/>
		<path id="Path_6799" class="st2" d="M55.8,17.2l2-1.6c-1.1-0.2-2.1,0.4-2.5,1.4c-0.9-0.3-1.8-0.2-2.6,0.2l4.1,1.5
			C56.7,18.1,56.3,17.6,55.8,17.2z"/>
		<path id="Path_5503" class="st2" d="M25.9,5.4l2-1.6c-1.1-0.2-2.1,0.4-2.5,1.4c-0.9-0.3-1.8-0.2-2.6,0.2l4.1,1.5
			C26.7,6.3,26.4,5.8,25.9,5.4z"/>
		<path id="Path_5504" class="st2" d="M29.7,21.1l2-1.6c-1.1-0.2-2.1,0.4-2.5,1.4c-0.9-0.3-1.8-0.2-2.6,0.2l4.1,1.5
			C30.5,21.9,30.1,21.4,29.7,21.1z"/>
		<path id="Path_5505" class="st2" d="M109.1,29.5l2-1.6c-1.1-0.2-2.1,0.4-2.5,1.4c-0.9-0.3-1.8-0.2-2.6,0.2l4.1,1.5
			C109.9,30.3,109.6,29.8,109.1,29.5z"/>
		<path id="Path_6794" class="st2" d="M22.3,29.5l2-1.6c-1.1-0.2-2.1,0.4-2.5,1.4c-0.9-0.3-1.8-0.2-2.6,0.2l4.1,1.5
			C23.1,30.3,22.8,29.8,22.3,29.5z"/>
		<path id="Path_5507" class="st2" d="M14.5,86.9c-0.5,0-1.1,0.1-1.5,0.4c-1.4-1.2-3.5-1.1-4.7,0.2c-0.6,0.6-0.9,1.4-0.9,2.2h10.2
			C17.5,88.1,16.1,86.9,14.5,86.9z"/>
		<path id="Path_5508" class="st2" d="M67.1,86.9c-0.5,0-1.1,0.1-1.5,0.4c-1.4-1.2-3.5-1.1-4.7,0.2c-0.6,0.6-0.9,1.4-0.9,2.2h10.2
			C70.1,88.1,68.7,86.9,67.1,86.9z"/>
		<path id="Path_5509" class="st2" d="M101.5,86.9c-0.5,0-1.1,0.1-1.5,0.4c-1.4-1.2-3.5-1.1-4.7,0.2c-0.6,0.6-0.9,1.4-0.9,2.2h10.2
			C104.5,88.1,103.1,86.9,101.5,86.9z"/>
		<path id="Path_6804" class="st2" d="M14.7,86.9c-0.5,0-1.1,0.1-1.5,0.4c-1.4-1.2-3.5-1.1-4.7,0.2c-0.6,0.6-0.9,1.4-0.9,2.2h10.2
			C17.7,88.1,16.3,86.9,14.7,86.9z"/>
		<path id="Path_6791" class="st2" d="M129.8,86.2c-0.7,0-1.3,0.2-1.9,0.5c-1.7-1.5-4.3-1.4-5.8,0.3c-0.7,0.8-1.1,1.7-1.1,2.8h12.7
			C133.5,87.7,131.8,86.2,129.8,86.2z"/>
		<path id="Path_6802" class="st2" d="M43,86.2c-0.7,0-1.3,0.2-1.9,0.5c-1.7-1.5-4.3-1.4-5.8,0.3c-0.7,0.8-1.1,1.7-1.1,2.8h12.7
			C46.7,87.7,45,86.2,43,86.2z"/>
		<path id="Path_6793" class="st2" d="M162.9,86.2c-0.7,0-1.3,0.2-1.9,0.5c-1.7-1.5-4.3-1.4-5.8,0.3c-0.7,0.8-1.1,1.7-1.1,2.8h12.7
			C166.6,87.7,164.9,86.2,162.9,86.2z"/>
		<path id="Path_6803" class="st2" d="M76.1,86.2c-0.7,0-1.3,0.2-1.9,0.5c-1.7-1.5-4.3-1.4-5.8,0.3c-0.7,0.8-1.1,1.7-1.1,2.8H80
			C79.8,87.7,78.1,86.2,76.1,86.2z"/>
		<path id="Path_5510" class="st2" d="M146.7,86.9c-0.5,0-1.1,0.1-1.5,0.4c-1.4-1.2-3.5-1.1-4.7,0.2c-0.6,0.6-0.9,1.4-0.9,2.2h10.2
			C149.7,88.1,148.4,86.9,146.7,86.9z"/>
		<path id="Path_6805" class="st2" d="M59.9,86.9c-0.5,0-1.1,0.1-1.5,0.4c-1.4-1.2-3.5-1.1-4.7,0.2c-0.6,0.6-0.9,1.4-0.9,2.2H63
			C62.9,88.1,61.6,86.9,59.9,86.9z"/>
		<path id="Path_5511" class="st2" d="M168.5,86.9c-0.5,0-1.1,0.1-1.5,0.4c-1.4-1.2-3.5-1.1-4.7,0.2c-0.6,0.6-0.9,1.4-0.9,2.2h10.2
			C171.5,88.1,170.1,86.9,168.5,86.9z"/>
		<path id="Path_6806" class="st2" d="M81.7,86.9c-0.5,0-1.1,0.1-1.5,0.4c-1.4-1.2-3.5-1.1-4.7,0.2c-0.6,0.6-0.9,1.4-0.9,2.2h10.2
			C84.7,88.1,83.3,86.9,81.7,86.9z"/>
	</g>
</g>
<g id="Group_9515">
	<g id="Group_5977-2">
		<ellipse id="Ellipse_526-2" class="st0" cx="66.4" cy="52.7" rx="14.4" ry="14.4"/>
		<ellipse id="Ellipse_1451-2" class="st0" cx="94.6" cy="44.2" rx="17.9" ry="17.9"/>
		<ellipse id="Ellipse_1452-2" class="st0" cx="127.7" cy="44.2" rx="17.9" ry="17.9"/>
		<ellipse id="Ellipse_1456-2" class="st0" cx="40.9" cy="44.2" rx="17.9" ry="17.9"/>
		<path id="Path_5494-2" class="st1" d="M77.1,42.9c3.1,7.3-0.3,15.8-7.6,18.9c-5.7,2.4-12.3,1-16.4-3.7c3.1,7.3,11.6,10.7,18.9,7.6
			c7.3-3.1,10.7-11.6,7.6-18.9C79,45.4,78.1,44.1,77.1,42.9z"/>
		<path id="Path_5495-2" class="st2" d="M66.4,49.2L66.4,49.2L67.2,90h-1.5L66.4,49.2z"/>
		<path id="Path_6790-2" class="st2" d="M94.7,39.3L94.7,39.3L95.6,90h-1.9L94.7,39.3z"/>
		<path id="Path_6792-2" class="st2" d="M127.8,39.3L127.8,39.3l0.9,50.7h-1.9L127.8,39.3z"/>
		<path id="Path_6801-2" class="st2" d="M41,39.3L41,39.3L41.9,90h-1.9L41,39.3z"/>
		
			<rect id="Rectangle_3887-2" x="66.3" y="72.5" transform="matrix(0.8848 -0.4659 0.4659 0.8848 -26.128 39.923)" class="st2" width="2.7" height="0.7"/>
		
			<rect id="Rectangle_5247-2" x="94.6" y="69" transform="matrix(0.8848 -0.4659 0.4659 0.8848 -21.2506 52.8327)" class="st2" width="3.3" height="0.9"/>
		
			<rect id="Rectangle_5248-2" x="127.7" y="69" transform="matrix(0.8848 -0.4659 0.4659 0.8848 -17.4352 68.2679)" class="st2" width="3.3" height="0.9"/>
		
			<rect id="Rectangle_5252-2" x="40.9" y="69" transform="matrix(0.8848 -0.4659 0.4659 0.8848 -27.432 27.8259)" class="st2" width="3.3" height="0.9"/>
		<ellipse id="Ellipse_527-2" class="st0" cx="108.7" cy="34.8" rx="21.9" ry="21.9"/>
		<ellipse id="Ellipse_1455-2" class="st0" cx="21.9" cy="34.8" rx="21.9" ry="21.9"/>
		<path id="Path_5496-2" class="st1" d="M124.9,19.4c4.7,11.1-0.4,24-11.5,28.7c-8.6,3.7-18.7,1.5-24.9-5.6
			c4.7,11.1,17.6,16.3,28.7,11.5c11.1-4.7,16.3-17.6,11.5-28.7C127.8,23.2,126.5,21.1,124.9,19.4z"/>
		<path id="Path_6796-2" class="st1" d="M38.1,19.4c4.7,11.1-0.4,24-11.5,28.7C18,51.8,7.9,49.5,1.7,42.5
			C6.4,53.6,19.3,58.8,30.4,54c11.1-4.7,16.3-17.6,11.5-28.7C41,23.2,39.7,21.1,38.1,19.4z"/>
		<path id="Path_5497-2" class="st2" d="M108.7,27.9L108.7,27.9l1.1,62h-2.3L108.7,27.9z"/>
		<path id="Path_6800-2" class="st2" d="M21.9,27.9L21.9,27.9l1.1,62h-2.3L21.9,27.9z"/>
		
			<rect id="Rectangle_3888-2" x="108.6" y="64.2" transform="matrix(0.8848 -0.4659 0.4659 0.8848 -17.4389 59.0189)" class="st2" width="4.1" height="1.1"/>
		
			<rect id="Rectangle_5249-2" x="21.8" y="64.2" transform="matrix(0.8848 -0.4659 0.4659 0.8848 -27.4358 18.5768)" class="st2" width="4.1" height="1.1"/>
		<path id="Path_5500-2" class="st2" d="M76.8,1.7l2-1.6c-1.1-0.2-2.1,0.4-2.5,1.4c-0.9-0.3-1.8-0.2-2.6,0.2L77.8,3
			C77.6,2.5,77.2,2,76.8,1.7z"/>
		<path id="Path_5502-2" class="st2" d="M107.8,17.2l2-1.6c-1.1-0.2-2.1,0.4-2.5,1.4c-0.9-0.3-1.8-0.2-2.6,0.2l4.1,1.5
			C108.7,18.1,108.3,17.6,107.8,17.2z"/>
		<path id="Path_6799-2" class="st2" d="M21,17.2l2-1.6c-1.1-0.2-2.1,0.4-2.5,1.4c-0.9-0.3-1.8-0.2-2.6,0.2l4.1,1.5
			C21.8,18.1,21.5,17.6,21,17.2z"/>
		<path id="Path_5505-2" class="st2" d="M74.3,29.5l2-1.6c-1.1-0.2-2.1,0.4-2.5,1.4c-0.9-0.3-1.8-0.2-2.6,0.2l4.1,1.5
			C75.1,30.3,74.8,29.8,74.3,29.5z"/>
		<path id="Path_5508-2" class="st2" d="M32.3,86.9c-0.5,0-1.1,0.1-1.5,0.4c-1.4-1.2-3.5-1.1-4.7,0.2c-0.6,0.6-0.9,1.4-0.9,2.2h10.2
			C35.3,88.1,33.9,86.9,32.3,86.9z"/>
		<path id="Path_5509-2" class="st2" d="M66.7,86.9c-0.5,0-1.1,0.1-1.5,0.4c-1.4-1.2-3.5-1.1-4.7,0.2c-0.6,0.6-0.9,1.4-0.9,2.2h10.2
			C69.7,88.1,68.3,86.9,66.7,86.9z"/>
		<path id="Path_6791-2" class="st2" d="M95,86.2c-0.7,0-1.3,0.2-1.9,0.5c-1.7-1.5-4.3-1.4-5.8,0.3c-0.7,0.8-1.1,1.7-1.1,2.8h12.7
			C98.7,87.7,97,86.2,95,86.2z"/>
		<path id="Path_6793-2" class="st2" d="M128.1,86.2c-0.7,0-1.3,0.2-1.9,0.5c-1.7-1.5-4.3-1.4-5.8,0.3c-0.7,0.8-1.1,1.7-1.1,2.8H132
			C131.8,87.7,130.1,86.2,128.1,86.2z"/>
		<path id="Path_6803-2" class="st2" d="M41.3,86.2c-0.7,0-1.3,0.2-1.9,0.5c-1.7-1.5-4.3-1.4-5.8,0.3c-0.7,0.8-1.1,1.7-1.1,2.8h12.7
			C45,87.7,43.3,86.2,41.3,86.2z"/>
		<path id="Path_5510-2" class="st2" d="M111.9,86.9c-0.5,0-1.1,0.1-1.5,0.4c-1.4-1.2-3.5-1.1-4.7,0.2c-0.6,0.6-0.9,1.4-0.9,2.2H115
			C114.9,88.1,113.6,86.9,111.9,86.9z"/>
		<path id="Path_6805-2" class="st2" d="M25.1,86.9c-0.5,0-1.1,0.1-1.5,0.4c-1.4-1.2-3.5-1.1-4.7,0.2c-0.6,0.6-0.9,1.4-0.9,2.2h10.2
			C28.1,88.1,26.8,86.9,25.1,86.9z"/>
		<path id="Path_5511-2" class="st2" d="M133.7,86.9c-0.5,0-1.1,0.1-1.5,0.4c-1.4-1.2-3.5-1.1-4.7,0.2c-0.6,0.6-0.9,1.4-0.9,2.2
			h10.2C136.7,88.1,135.3,86.9,133.7,86.9z"/>
		<path id="Path_6806-2" class="st2" d="M46.9,86.9c-0.5,0-1.1,0.1-1.5,0.4c-1.4-1.2-3.5-1.1-4.7,0.2c-0.6,0.6-0.9,1.4-0.9,2.2H50
			C49.9,88.1,48.5,86.9,46.9,86.9z"/>
	</g>
</g>
</svg>
