<?xml version="1.0" encoding="utf-8"?>
<!-- Generator: Adobe Illustrator 25.2.1, SVG Export Plug-In . SVG Version: 6.00 Build 0)  -->
<svg version="1.1" id="Warstwa_1" xmlns="http://www.w3.org/2000/svg" xmlns:xlink="http://www.w3.org/1999/xlink" x="0px" y="0px"
	 viewBox="0 0 189.2 99.5" style="enable-background:new 0 0 189.2 99.5;" xml:space="preserve">
<style type="text/css">
	.st0{fill:#23BC3D;}
	.st1{opacity:0.2;enable-background:new    ;}
	.st2{fill:#3F3D56;}
	.st3{fill:#FFE27A;}
	.st4{fill:#E2A00E;}
	.st5{fill:#FFBD1B;}
</style>
<g id="Group_9703" transform="translate(-72.839 -695.5)">
	<g id="Group_9519" transform="translate(58.585 695.5)">
		<ellipse id="Ellipse_526" class="st0" cx="124.2" cy="58.6" rx="14.4" ry="14.4"/>
		<ellipse id="Ellipse_1453" class="st0" cx="37.4" cy="58.6" rx="14.4" ry="14.4"/>
		<ellipse id="Ellipse_1451" class="st0" cx="152.4" cy="48.8" rx="17.9" ry="17.9"/>
		<ellipse id="Ellipse_1454" class="st0" cx="65.6" cy="48.8" rx="17.9" ry="17.9"/>
		<ellipse id="Ellipse_1452" class="st0" cx="185.5" cy="48.8" rx="17.9" ry="17.9"/>
		<ellipse id="Ellipse_1456" class="st0" cx="98.7" cy="48.8" rx="17.9" ry="17.9"/>
		<path id="Path_5494" class="st1" d="M134.9,49c3.1,7.3-0.3,15.8-7.6,18.9c-5.7,2.4-12.3,1-16.4-3.7c3.1,7.3,11.6,10.7,18.9,7.6
			c7.3-3.1,10.7-11.6,7.6-18.9C136.7,51.5,135.9,50.2,134.9,49z"/>
		<path id="Path_6795" class="st1" d="M48.1,49c3.1,7.3-0.3,15.8-7.6,18.9c-5.7,2.4-12.3,1-16.4-3.7C27.2,71.6,35.7,75,43,71.8
			c7.3-3.1,10.7-11.6,7.6-18.9C49.9,51.5,49.1,50.2,48.1,49z"/>
		<path id="Path_5495" class="st2" d="M124.2,58.6L124.2,58.6l0.8,40.8h-1.5L124.2,58.6z"/>
		<path id="Path_6797" class="st2" d="M37.4,58.6L37.4,58.6l0.8,40.8h-1.5L37.4,58.6z"/>
		<path id="Path_6790" class="st2" d="M152.5,48.8L152.5,48.8l0.9,50.7h-1.9L152.5,48.8z"/>
		<path id="Path_6798" class="st2" d="M65.7,48.8L65.7,48.8l0.9,50.7h-1.9L65.7,48.8z"/>
		<path id="Path_6792" class="st2" d="M185.6,48.8L185.6,48.8l0.9,50.7h-1.9L185.6,48.8z"/>
		<path id="Path_6801" class="st2" d="M98.8,48.8L98.8,48.8l0.9,50.7h-1.9L98.8,48.8z"/>
		
			<rect id="Rectangle_3887" x="124.1" y="80.8" transform="matrix(0.8848 -0.4659 0.4659 0.8848 -23.3686 67.8081)" class="st2" width="2.7" height="0.7"/>
		
			<rect id="Rectangle_5251" x="37.3" y="80.8" transform="matrix(0.8848 -0.4659 0.4659 0.8848 -33.3653 27.3666)" class="st2" width="2.7" height="0.7"/>
		
			<rect id="Rectangle_5247" x="152.4" y="76.3" transform="matrix(0.8848 -0.4659 0.4659 0.8848 -18.0289 80.6041)" class="st2" width="3.3" height="0.9"/>
		
			<rect id="Rectangle_5250" x="65.6" y="76.3" transform="matrix(0.8848 -0.4659 0.4659 0.8848 -28.0257 40.162)" class="st2" width="3.3" height="0.9"/>
		
			<rect id="Rectangle_5248" x="185.5" y="76.3" transform="matrix(0.8848 -0.4659 0.4659 0.8848 -14.2135 96.0392)" class="st2" width="3.3" height="0.9"/>
		
			<rect id="Rectangle_5252" x="98.7" y="76.3" transform="matrix(0.8848 -0.4659 0.4659 0.8848 -24.2103 55.5972)" class="st2" width="3.3" height="0.9"/>
		<ellipse id="Ellipse_527" class="st0" cx="166.5" cy="37.4" rx="21.9" ry="21.9"/>
		<ellipse id="Ellipse_1455" class="st0" cx="79.7" cy="37.4" rx="21.9" ry="21.9"/>
		<path id="Path_5496" class="st1" d="M182.7,22.8c4.7,11.1-0.4,24-11.5,28.7c-8.6,3.7-18.7,1.5-24.9-5.6
			c4.7,11.1,17.6,16.3,28.7,11.5c11.1-4.7,16.3-17.6,11.5-28.7C185.6,26.6,184.3,24.6,182.7,22.8z"/>
		<path id="Path_6796" class="st1" d="M95.9,22.8c4.7,11.1-0.4,24-11.5,28.7C75.8,55.2,65.7,53,59.5,46
			c4.7,11.1,17.6,16.3,28.7,11.5c11.1-4.7,16.3-17.6,11.5-28.7C98.8,26.6,97.5,24.6,95.9,22.8z"/>
		<path id="Path_5497" class="st2" d="M166.5,37.4L166.5,37.4l1.1,62h-2.3L166.5,37.4z"/>
		<path id="Path_6800" class="st2" d="M79.7,37.4L79.7,37.4l1.1,62h-2.3L79.7,37.4z"/>
		
			<rect id="Rectangle_3888" x="166.4" y="71.1" transform="matrix(0.8848 -0.4659 0.4659 0.8848 -13.9908 86.7342)" class="st2" width="4.1" height="1.1"/>
		
			<rect id="Rectangle_5249" x="79.6" y="71.1" transform="matrix(0.8848 -0.4659 0.4659 0.8848 -23.9876 46.2922)" class="st2" width="4.1" height="1.1"/>
		<path id="Path_5500" class="st2" d="M134.5,1.7l2-1.6c-1.1-0.2-2.1,0.4-2.5,1.4c-0.9-0.3-1.8-0.2-2.6,0.2l4.1,1.5
			C135.4,2.5,135,2,134.5,1.7z"/>
		<path id="Path_5501" class="st2" d="M32,9.9l2-1.6C33,8,31.9,8.6,31.5,9.6c-0.9-0.3-1.8-0.2-2.6,0.2l4.1,1.5
			C32.8,10.7,32.5,10.2,32,9.9z"/>
		<path id="Path_5502" class="st2" d="M165.6,18.3l2-1.6c-1.1-0.2-2.1,0.4-2.5,1.4c-0.9-0.3-1.8-0.2-2.6,0.2l4.1,1.5
			C166.4,19.1,166.1,18.7,165.6,18.3z"/>
		<path id="Path_6799" class="st2" d="M78.8,18.3l2-1.6c-1.1-0.2-2.1,0.4-2.5,1.4c-0.9-0.3-1.8-0.2-2.6,0.2l4.1,1.5
			C79.6,19.1,79.3,18.7,78.8,18.3z"/>
		<path id="Path_5503" class="st2" d="M48.9,5.4l2-1.6c-1.1-0.2-2.1,0.4-2.5,1.4c-0.9-0.3-1.8-0.2-2.6,0.2l4.1,1.5
			C49.7,6.3,49.3,5.8,48.9,5.4z"/>
		<path id="Path_5504" class="st2" d="M52.6,23.2l2-1.6c-1.1-0.2-2.1,0.4-2.5,1.4c-0.9-0.3-1.8-0.2-2.6,0.2l4.1,1.5
			C53.5,24,53.1,23.5,52.6,23.2z"/>
		<path id="Path_5505" class="st2" d="M132.1,32.5l2-1.6c-1.1-0.2-2.1,0.4-2.5,1.4c-0.9-0.3-1.8-0.2-2.6,0.2l4.1,1.5
			C132.9,33.3,132.6,32.9,132.1,32.5z"/>
		<path id="Path_6794" class="st2" d="M45.3,32.5l2-1.6c-1.1-0.2-2.1,0.4-2.5,1.4C44,32,43.1,32,42.2,32.4l4.1,1.5
			C46.1,33.3,45.8,32.9,45.3,32.5z"/>
		<path id="Path_5507" class="st2" d="M37.5,96.4c-0.5,0-1.1,0.1-1.5,0.4c-1.4-1.2-3.5-1.1-4.7,0.2c-0.6,0.6-0.9,1.4-0.9,2.2h10.2
			C40.4,97.6,39.1,96.4,37.5,96.4z"/>
		<path id="Path_5508" class="st2" d="M90.1,96.4c-0.5,0-1.1,0.1-1.5,0.4c-1.4-1.2-3.5-1.1-4.7,0.2c-0.6,0.6-0.9,1.4-0.9,2.2h10.2
			C93,97.6,91.7,96.4,90.1,96.4z"/>
		<path id="Path_5509" class="st2" d="M124.5,96.4c-0.5,0-1.1,0.1-1.5,0.4c-1.4-1.2-3.5-1.1-4.7,0.2c-0.6,0.6-0.9,1.4-0.9,2.2h10.2
			C127.4,97.6,126.1,96.4,124.5,96.4z"/>
		<path id="Path_6804" class="st2" d="M37.7,96.4c-0.5,0-1.1,0.1-1.5,0.4c-1.4-1.2-3.5-1.1-4.7,0.2c-0.6,0.6-0.9,1.4-0.9,2.2h10.2
			C40.6,97.6,39.3,96.4,37.7,96.4z"/>
		<path id="Path_6791" class="st2" d="M152.8,95.6c-0.7,0-1.3,0.2-1.9,0.5c-1.7-1.5-4.3-1.4-5.8,0.3c-0.7,0.8-1.1,1.7-1.1,2.8h12.7
			C156.5,97.2,154.8,95.6,152.8,95.6z"/>
		<path id="Path_6802" class="st2" d="M66,95.6c-0.7,0-1.3,0.2-1.9,0.5c-1.7-1.5-4.3-1.4-5.8,0.3c-0.7,0.8-1.1,1.7-1.1,2.8h12.7
			C69.7,97.2,68,95.6,66,95.6z"/>
		<path id="Path_6793" class="st2" d="M185.9,95.6c-0.7,0-1.3,0.2-1.9,0.5c-1.7-1.5-4.3-1.4-5.8,0.3c-0.7,0.8-1.1,1.7-1.1,2.8h12.7
			C189.6,97.2,187.9,95.6,185.9,95.6z"/>
		<path id="Path_6803" class="st2" d="M99.1,95.6c-0.7,0-1.3,0.2-1.9,0.5c-1.7-1.5-4.3-1.4-5.8,0.3c-0.7,0.8-1.1,1.7-1.1,2.8h12.7
			C102.8,97.2,101.1,95.6,99.1,95.6z"/>
		<path id="Path_5510" class="st2" d="M169.7,96.4c-0.5,0-1.1,0.1-1.5,0.4c-1.4-1.2-3.5-1.1-4.7,0.2c-0.6,0.6-0.9,1.4-0.9,2.2h10.2
			C172.7,97.6,171.4,96.4,169.7,96.4z"/>
		<path id="Path_6805" class="st2" d="M82.9,96.4c-0.5,0-1.1,0.1-1.5,0.4c-1.4-1.2-3.5-1.1-4.7,0.2c-0.6,0.6-0.9,1.4-0.9,2.2H86
			C85.9,97.6,84.6,96.4,82.9,96.4z"/>
		<path id="Path_5511" class="st2" d="M191.5,96.4c-0.5,0-1.1,0.1-1.5,0.4c-1.4-1.2-3.5-1.1-4.7,0.2c-0.6,0.6-0.9,1.4-0.9,2.2h10.2
			C194.5,97.6,193.1,96.4,191.5,96.4z"/>
		<path id="Path_6806" class="st2" d="M104.7,96.4c-0.5,0-1.1,0.1-1.5,0.4c-1.4-1.2-3.5-1.1-4.7,0.2c-0.6,0.6-0.9,1.4-0.9,2.2h10.2
			C107.7,97.6,106.3,96.4,104.7,96.4z"/>
	</g>
	<g id="Group_9520" transform="translate(1347.05 2246.894)">
		<path id="Path_6810" class="st3" d="M-1256.8-1497.2c0,4.8-3.9,8.7-8.7,8.7s-8.7-3.9-8.7-8.7s3.9-8.7,8.7-8.7
			C-1260.7-1506-1256.8-1502.1-1256.8-1497.2C-1256.8-1497.2-1256.8-1497.2-1256.8-1497.2"/>
		<path id="Path_6811" class="st4" d="M-1258.7-1497.4c0,3.8-3.1,6.9-6.9,6.9c-3.8,0-6.9-3.1-6.9-6.9c0-1.9,0.8-3.7,2.2-5l0,0
			c2.8-2.6,7.1-2.5,9.7,0.3C-1259.3-1500.8-1258.7-1499.1-1258.7-1497.4"/>
		<path id="Path_6812" class="st5" d="M-1259.1-1497c-0.3,3.7-3.5,6.4-7.1,6.2s-6.4-3.5-6.2-7.1c0.1-1.7,0.9-3.3,2.2-4.4l0,0
			c3-2.3,7.3-1.8,9.7,1.2C-1259.6-1500-1259.1-1498.5-1259.1-1497"/>
		<path id="Path_6813" class="st4" d="M-1263.5-1495.1c-0.4,0.3-0.8,0.6-1.3,0.6v0.9h-1.1v-0.8c-0.4,0-0.7-0.1-1.1-0.2
			c-0.3-0.1-0.6-0.2-0.9-0.4l0.6-1.3c0.3,0.2,0.6,0.3,0.9,0.4c0.3,0.1,0.6,0.1,0.9,0.1c0.2,0,0.4,0,0.5-0.1c0.1,0,0.2-0.1,0.2-0.2
			c0-0.1-0.1-0.2-0.2-0.3c-0.2-0.1-0.5-0.1-0.7-0.2c-0.4-0.1-0.7-0.2-1-0.3c-0.3-0.1-0.5-0.3-0.7-0.5c-0.2-0.3-0.3-0.6-0.3-0.9
			c0-0.4,0.2-0.9,0.5-1.2c0.4-0.4,0.9-0.6,1.4-0.6v-0.8h1.1v0.8c0.5,0,1.1,0.2,1.6,0.4l-0.6,1.3c-0.5-0.2-1-0.4-1.5-0.4
			c-0.5,0-0.7,0.1-0.7,0.3c0,0.1,0.1,0.2,0.2,0.2c0.2,0.1,0.5,0.1,0.7,0.2c0.4,0.1,0.7,0.2,1,0.3c0.3,0.1,0.5,0.3,0.7,0.5
			c0.2,0.3,0.3,0.6,0.3,0.9C-1263-1495.8-1263.2-1495.4-1263.5-1495.1"/>
	</g>
	<g id="Group_9521" transform="translate(1424.05 2218.894)">
		<path id="Path_6810-2" class="st3" d="M-1256.8-1497.2c0,4.8-3.9,8.7-8.7,8.7s-8.7-3.9-8.7-8.7s3.9-8.7,8.7-8.7
			C-1260.7-1506-1256.8-1502.1-1256.8-1497.2C-1256.8-1497.2-1256.8-1497.2-1256.8-1497.2"/>
		<path id="Path_6811-2" class="st4" d="M-1258.7-1497.4c0,3.8-3.1,6.9-6.9,6.9c-3.8,0-6.9-3.1-6.9-6.9c0-1.9,0.8-3.7,2.2-5l0,0
			c2.8-2.6,7.1-2.5,9.7,0.3C-1259.3-1500.8-1258.7-1499.1-1258.7-1497.4"/>
		<path id="Path_6812-2" class="st5" d="M-1259.1-1497c-0.3,3.7-3.5,6.4-7.1,6.2s-6.4-3.5-6.2-7.1c0.1-1.7,0.9-3.3,2.2-4.4l0,0
			c3-2.3,7.3-1.8,9.7,1.2C-1259.6-1500-1259.1-1498.5-1259.1-1497"/>
		<path id="Path_6813-2" class="st4" d="M-1263.5-1495.1c-0.4,0.3-0.8,0.6-1.3,0.6v0.9h-1.1v-0.8c-0.4,0-0.7-0.1-1.1-0.2
			c-0.3-0.1-0.6-0.2-0.9-0.4l0.6-1.3c0.3,0.2,0.6,0.3,0.9,0.4c0.3,0.1,0.6,0.1,0.9,0.1c0.2,0,0.4,0,0.5-0.1c0.1,0,0.2-0.1,0.2-0.2
			c0-0.1-0.1-0.2-0.2-0.3c-0.2-0.1-0.5-0.1-0.7-0.2c-0.4-0.1-0.7-0.2-1-0.3c-0.3-0.1-0.5-0.3-0.7-0.5c-0.2-0.3-0.3-0.6-0.3-0.9
			c0-0.4,0.2-0.9,0.5-1.2c0.4-0.4,0.9-0.6,1.4-0.6v-0.8h1.1v0.8c0.5,0,1.1,0.2,1.6,0.4l-0.6,1.3c-0.5-0.2-1-0.4-1.5-0.4
			c-0.5,0-0.7,0.1-0.7,0.3c0,0.1,0.1,0.2,0.2,0.2c0.2,0.1,0.5,0.1,0.7,0.2c0.4,0.1,0.7,0.2,1,0.3c0.3,0.1,0.5,0.3,0.7,0.5
			c0.2,0.3,0.3,0.6,0.3,0.9C-1263-1495.8-1263.2-1495.4-1263.5-1495.1"/>
	</g>
	<g id="Group_9522" transform="translate(1432.779 2264.351)">
		<path id="Path_6810-3" class="st3" d="M-1256.8-1497.2c0,4.8-3.9,8.7-8.7,8.7s-8.7-3.9-8.7-8.7s3.9-8.7,8.7-8.7
			C-1260.7-1506-1256.8-1502.1-1256.8-1497.2C-1256.8-1497.2-1256.8-1497.2-1256.8-1497.2"/>
		<path id="Path_6811-3" class="st4" d="M-1258.7-1497.4c0,3.8-3.1,6.9-6.9,6.9c-3.8,0-6.9-3.1-6.9-6.9c0-1.9,0.8-3.7,2.2-5l0,0
			c2.8-2.6,7.1-2.5,9.7,0.3C-1259.3-1500.8-1258.7-1499.1-1258.7-1497.4"/>
		<path id="Path_6812-3" class="st5" d="M-1259.1-1497c-0.3,3.7-3.5,6.4-7.1,6.2s-6.4-3.5-6.2-7.1c0.1-1.7,0.9-3.3,2.2-4.4l0,0
			c3-2.3,7.3-1.8,9.7,1.2C-1259.6-1500-1259.1-1498.5-1259.1-1497"/>
		<path id="Path_6813-3" class="st4" d="M-1263.5-1495.1c-0.4,0.3-0.8,0.6-1.3,0.6v0.9h-1.1v-0.8c-0.4,0-0.7-0.1-1.1-0.2
			c-0.3-0.1-0.6-0.2-0.9-0.4l0.6-1.3c0.3,0.2,0.6,0.3,0.9,0.4c0.3,0.1,0.6,0.1,0.9,0.1c0.2,0,0.4,0,0.5-0.1c0.1,0,0.2-0.1,0.2-0.2
			c0-0.1-0.1-0.2-0.2-0.3c-0.2-0.1-0.5-0.1-0.7-0.2c-0.4-0.1-0.7-0.2-1-0.3c-0.3-0.1-0.5-0.3-0.7-0.5c-0.2-0.3-0.3-0.6-0.3-0.9
			c0-0.4,0.2-0.9,0.5-1.2c0.4-0.4,0.9-0.6,1.4-0.6v-0.8h1.1v0.8c0.5,0,1.1,0.2,1.6,0.4l-0.6,1.3c-0.5-0.2-1-0.4-1.5-0.4
			c-0.5,0-0.7,0.1-0.7,0.3c0,0.1,0.1,0.2,0.2,0.2c0.2,0.1,0.5,0.1,0.7,0.2c0.4,0.1,0.7,0.2,1,0.3c0.3,0.1,0.5,0.3,0.7,0.5
			c0.2,0.3,0.3,0.6,0.3,0.9C-1263-1495.8-1263.2-1495.4-1263.5-1495.1"/>
	</g>
	<g id="Group_9523" transform="translate(1467.779 2227.623)">
		<path id="Path_6810-4" class="st3" d="M-1256.8-1497.2c0,4.8-3.9,8.7-8.7,8.7s-8.7-3.9-8.7-8.7s3.9-8.7,8.7-8.7
			C-1260.7-1506-1256.8-1502.1-1256.8-1497.2C-1256.8-1497.2-1256.8-1497.2-1256.8-1497.2"/>
		<path id="Path_6811-4" class="st4" d="M-1258.7-1497.4c0,3.8-3.1,6.9-6.9,6.9c-3.8,0-6.9-3.1-6.9-6.9c0-1.9,0.8-3.7,2.2-5l0,0
			c2.8-2.6,7.1-2.5,9.7,0.3C-1259.3-1500.8-1258.7-1499.1-1258.7-1497.4"/>
		<path id="Path_6812-4" class="st5" d="M-1259.1-1497c-0.3,3.7-3.5,6.4-7.1,6.2s-6.4-3.5-6.2-7.1c0.1-1.7,0.9-3.3,2.2-4.4l0,0
			c3-2.3,7.3-1.8,9.7,1.2C-1259.6-1500-1259.1-1498.5-1259.1-1497"/>
		<path id="Path_6813-4" class="st4" d="M-1263.5-1495.1c-0.4,0.3-0.8,0.6-1.3,0.6v0.9h-1.1v-0.8c-0.4,0-0.7-0.1-1.1-0.2
			c-0.3-0.1-0.6-0.2-0.9-0.4l0.6-1.3c0.3,0.2,0.6,0.3,0.9,0.4c0.3,0.1,0.6,0.1,0.9,0.1c0.2,0,0.4,0,0.5-0.1c0.1,0,0.2-0.1,0.2-0.2
			c0-0.1-0.1-0.2-0.2-0.3c-0.2-0.1-0.5-0.1-0.7-0.2c-0.4-0.1-0.7-0.2-1-0.3c-0.3-0.1-0.5-0.3-0.7-0.5c-0.2-0.3-0.3-0.6-0.3-0.9
			c0-0.4,0.2-0.9,0.5-1.2c0.4-0.4,0.9-0.6,1.4-0.6v-0.8h1.1v0.8c0.5,0,1.1,0.2,1.6,0.4l-0.6,1.3c-0.5-0.2-1-0.4-1.5-0.4
			c-0.5,0-0.7,0.1-0.7,0.3c0,0.1,0.1,0.2,0.2,0.2c0.2,0.1,0.5,0.1,0.7,0.2c0.4,0.1,0.7,0.2,1,0.3c0.3,0.1,0.5,0.3,0.7,0.5
			c0.2,0.3,0.3,0.6,0.3,0.9C-1263-1495.8-1263.2-1495.4-1263.5-1495.1"/>
	</g>
	<g id="Group_9524" transform="translate(1512.779 2229.437)">
		<path id="Path_6810-5" class="st3" d="M-1256.8-1497.2c0,4.8-3.9,8.7-8.7,8.7s-8.7-3.9-8.7-8.7s3.9-8.7,8.7-8.7
			C-1260.7-1506-1256.8-1502.1-1256.8-1497.2C-1256.8-1497.2-1256.8-1497.2-1256.8-1497.2"/>
		<path id="Path_6811-5" class="st4" d="M-1258.7-1497.4c0,3.8-3.1,6.9-6.9,6.9c-3.8,0-6.9-3.1-6.9-6.9c0-1.9,0.8-3.7,2.2-5l0,0
			c2.8-2.6,7.1-2.5,9.7,0.3C-1259.3-1500.8-1258.7-1499.1-1258.7-1497.4"/>
		<path id="Path_6812-5" class="st5" d="M-1259.1-1497c-0.3,3.7-3.5,6.4-7.1,6.2s-6.4-3.5-6.2-7.1c0.1-1.7,0.9-3.3,2.2-4.4l0,0
			c3-2.3,7.3-1.8,9.7,1.2C-1259.6-1500-1259.1-1498.5-1259.1-1497"/>
		<path id="Path_6813-5" class="st4" d="M-1263.5-1495.1c-0.4,0.3-0.8,0.6-1.3,0.6v0.9h-1.1v-0.8c-0.4,0-0.7-0.1-1.1-0.2
			c-0.3-0.1-0.6-0.2-0.9-0.4l0.6-1.3c0.3,0.2,0.6,0.3,0.9,0.4c0.3,0.1,0.6,0.1,0.9,0.1c0.2,0,0.4,0,0.5-0.1c0.1,0,0.2-0.1,0.2-0.2
			c0-0.1-0.1-0.2-0.2-0.3c-0.2-0.1-0.5-0.1-0.7-0.2c-0.4-0.1-0.7-0.2-1-0.3c-0.3-0.1-0.5-0.3-0.7-0.5c-0.2-0.3-0.3-0.6-0.3-0.9
			c0-0.4,0.2-0.9,0.5-1.2c0.4-0.4,0.9-0.6,1.4-0.6v-0.8h1.1v0.8c0.5,0,1.1,0.2,1.6,0.4l-0.6,1.3c-0.5-0.2-1-0.4-1.5-0.4
			c-0.5,0-0.7,0.1-0.7,0.3c0,0.1,0.1,0.2,0.2,0.2c0.2,0.1,0.5,0.1,0.7,0.2c0.4,0.1,0.7,0.2,1,0.3c0.3,0.1,0.5,0.3,0.7,0.5
			c0.2,0.3,0.3,0.6,0.3,0.9C-1263-1495.8-1263.2-1495.4-1263.5-1495.1"/>
	</g>
	<g id="Group_9525" transform="translate(1497.779 2264.351)">
		<path id="Path_6810-6" class="st3" d="M-1256.8-1497.2c0,4.8-3.9,8.7-8.7,8.7s-8.7-3.9-8.7-8.7s3.9-8.7,8.7-8.7
			C-1260.7-1506-1256.8-1502.1-1256.8-1497.2C-1256.8-1497.2-1256.8-1497.2-1256.8-1497.2"/>
		<path id="Path_6811-6" class="st4" d="M-1258.7-1497.4c0,3.8-3.1,6.9-6.9,6.9c-3.8,0-6.9-3.1-6.9-6.9c0-1.9,0.8-3.7,2.2-5l0,0
			c2.8-2.6,7.1-2.5,9.7,0.3C-1259.3-1500.8-1258.7-1499.1-1258.7-1497.4"/>
		<path id="Path_6812-6" class="st5" d="M-1259.1-1497c-0.3,3.7-3.5,6.4-7.1,6.2s-6.4-3.5-6.2-7.1c0.1-1.7,0.9-3.3,2.2-4.4l0,0
			c3-2.3,7.3-1.8,9.7,1.2C-1259.6-1500-1259.1-1498.5-1259.1-1497"/>
		<path id="Path_6813-6" class="st4" d="M-1263.5-1495.1c-0.4,0.3-0.8,0.6-1.3,0.6v0.9h-1.1v-0.8c-0.4,0-0.7-0.1-1.1-0.2
			c-0.3-0.1-0.6-0.2-0.9-0.4l0.6-1.3c0.3,0.2,0.6,0.3,0.9,0.4c0.3,0.1,0.6,0.1,0.9,0.1c0.2,0,0.4,0,0.5-0.1c0.1,0,0.2-0.1,0.2-0.2
			c0-0.1-0.1-0.2-0.2-0.3c-0.2-0.1-0.5-0.1-0.7-0.2c-0.4-0.1-0.7-0.2-1-0.3c-0.3-0.1-0.5-0.3-0.7-0.5c-0.2-0.3-0.3-0.6-0.3-0.9
			c0-0.4,0.2-0.9,0.5-1.2c0.4-0.4,0.9-0.6,1.4-0.6v-0.8h1.1v0.8c0.5,0,1.1,0.2,1.6,0.4l-0.6,1.3c-0.5-0.2-1-0.4-1.5-0.4
			c-0.5,0-0.7,0.1-0.7,0.3c0,0.1,0.1,0.2,0.2,0.2c0.2,0.1,0.5,0.1,0.7,0.2c0.4,0.1,0.7,0.2,1,0.3c0.3,0.1,0.5,0.3,0.7,0.5
			c0.2,0.3,0.3,0.6,0.3,0.9C-1263-1495.8-1263.2-1495.4-1263.5-1495.1"/>
	</g>
</g>
</svg>
