<?xml version="1.0" encoding="utf-8"?>
<!-- Generator: Adobe Illustrator 25.2.1, SVG Export Plug-In . SVG Version: 6.00 Build 0)  -->
<svg version="1.1" id="Warstwa_1" xmlns="http://www.w3.org/2000/svg" xmlns:xlink="http://www.w3.org/1999/xlink" x="0px" y="0px"
	 viewBox="0 0 12.9200001 12.9200001" style="enable-background:new 0 0 12.9200001 12.9200001;" xml:space="preserve">
<style type="text/css">
	.st0{fill:#FFFFFF;}
</style>
<g id="refresh_2_" transform="translate(-0.001)">
	<g id="Group_9591" transform="translate(0.714)">
		<g id="Group_9590">
			<path id="Path_6825" class="st0" d="M11.7490005,1.7819999c-0.2747765-0.0274185-0.5197563,0.1731057-0.5471764,0.4478835
				c-0.0003014,0.0030363-0.000576,0.0060751-0.000824,0.0091164l-0.0670013,0.734
				C9.258007-0.0037839,5.3240547-0.8961516,2.347271,0.9798407C1.3689537,1.5963843,0.576889,2.4675725,0.0559997,3.5
				c-0.126749,0.248528-0.0280285,0.5527506,0.2204991,0.6794996c0.2485294,0.1267495,0.5527515,0.0280285,0.6795006-0.2204995l0,0
				c1.3317394-2.6468627,4.5570354-3.7129805,7.2038975-2.3812404c0.8731613,0.4393207,1.6097069,1.1088356,2.1301041,1.9362406
				L9.5690002,3C9.342289,2.837904,9.0270958,2.8902862,8.8649979,3.1169991
				C8.7029037,3.3437121,8.7552872,3.6589041,8.9819984,3.8210001l0,0l2.1810036,1.5629997
				c0.2256203,0.1639614,0.5414352,0.1139774,0.7053986-0.1116419c0.0539818-0.0742812,0.086689-0.1618752,0.0946007-0.2533579
				l0.2449989-2.688c0.0278778-0.2747314-0.1722336-0.520046-0.4469643-0.5479256
				C11.7570267,1.7826679,11.7530174,1.7823097,11.7490005,1.7819999z"/>
		</g>
	</g>
	<g id="Group_9593" transform="translate(0.001 7.442)">
		<g id="Group_9592">
			<path id="Path_6826" class="st0" d="M11.9319992,1.2950133c-0.2447443-0.1278992-0.5468206-0.0331421-0.6747065,0.2115784
				c-0.0014572,0.0028076-0.0028887,0.0056152-0.0042934,0.0084229C9.9212608,4.1618652,6.6959667,5.2279968,4.0491037,3.8962708
				C3.1759446,3.4569397,2.4393959,2.7874146,1.919,1.9600219l0.7200001,0.5140077
				c0.2267168,0.1621094,0.5419116,0.1097107,0.7040071-0.1170044c0.1620958-0.2267151,0.1097097-0.5419008-0.117007-0.7040101
				L1.0440003,0.0950011C0.8183817-0.0689698,0.5025641-0.018982,0.3386021,0.2066344
				C0.2846217,0.2809142,0.2519149,0.3684997,0.2440003,0.4599914L-0.001,3.1470032
				C-0.026408,3.42453,0.1779717,3.670105,0.4554948,3.6954956C0.7330179,3.7209167,0.978592,3.5165405,1.0039999,3.2390137
				l0.067-0.7340088c1.8769754,2.9761658,5.8112221,3.867218,8.7873859,1.9902649
				c0.9782257-0.6169434,1.7700691-1.4885254,2.2906132-2.5212708c0.1285381-0.2444153,0.0346117-0.5467224-0.2097912-0.6752625
				C11.9368153,1.2974852,11.934412,1.296234,11.9319992,1.2950133z"/>
		</g>
	</g>
</g>
</svg>
