<?xml version="1.0" encoding="utf-8"?>
<!-- Generator: Adobe Illustrator 25.2.1, SVG Export Plug-In . SVG Version: 6.00 Build 0)  -->
<svg version="1.1" id="Warstwa_1" xmlns="http://www.w3.org/2000/svg" xmlns:xlink="http://www.w3.org/1999/xlink" x="0px" y="0px"
	 viewBox="0 0 20 20" style="enable-background:new 0 0 20 20;" xml:space="preserve">
<style type="text/css">
	.st0{fill:#FFC423;}
</style>
<g id="Icon_feather-pause-circle" transform="translate(-2 -2)">
	<path class="st0" d="M12,22C6.4858398,22,2,17.5136719,2,12C2,6.4858398,6.4858398,2,12,2c5.5136719,0,10,4.4858398,10,10
		C22,17.5136719,17.5136719,22,12,22z M12,4c-4.4111328,0-8,3.5888672-8,8s3.5888672,8,8,8s8-3.5888672,8-8S16.4111328,4,12,4z"/>
	<path class="st0" d="M10.2001953,15.7001953c-0.5522461,0-1-0.4472656-1-1V9.2998047c0-0.5522461,0.4477539-1,1-1s1,0.4477539,1,1
		v5.4003906C11.2001953,15.2529297,10.7524414,15.7001953,10.2001953,15.7001953z"/>
	<path class="st0" d="M13.7998047,15.7001953c-0.5527344,0-1-0.4472656-1-1V9.2998047c0-0.5522461,0.4472656-1,1-1s1,0.4477539,1,1
		v5.4003906C14.7998047,15.2529297,14.3525391,15.7001953,13.7998047,15.7001953z"/>
</g>
</svg>
