<?xml version="1.0" encoding="utf-8"?>
<!-- Generator: Adobe Illustrator 25.2.1, SVG Export Plug-In . SVG Version: 6.00 Build 0)  -->
<svg version="1.1" id="Warstwa_1" xmlns="http://www.w3.org/2000/svg" xmlns:xlink="http://www.w3.org/1999/xlink" x="0px" y="0px"
	 viewBox="0 0 71.9509964 71.9509964" style="enable-background:new 0 0 71.9509964 71.9509964;" xml:space="preserve">
<style type="text/css">
	.st0{fill:#FFC423;}
	.st1{fill:#FFFFFF;}
</style>
<g id="Group_9573" transform="translate(0 0)">
	<path id="Path" class="st0" d="M35.9760017,0C16.1070042-0.0005562-0.0004509,16.1059971-0.0010071,35.9749947
		S16.10499,71.9514465,35.9739876,71.9520035s35.9764519-16.105999,35.9770088-35.9749947c0-0.0006714,0-0.001339,0-0.0020103
		C71.9493408,16.1072426,55.8437576,0.0016593,35.9760017,0z"/>
	<path id="Path_6858" class="st1" d="M30.8260002,44.6080017v-1.656002c-0.0585289-1.640564,0.2974358-3.269413,1.0349998-4.7360001
		c0.9358139-1.5305977,2.1675072-2.8591805,3.6230011-3.9080009c1.4908218-1.0714264,2.8273239-2.3426552,3.9720001-3.7779999
		c0.612236-0.9561348,0.9233322-2.0740509,0.8929977-3.2089996c0.0755997-1.2796917-0.4615326-2.5191364-1.4469986-3.3390007
		c-1.2156525-0.8518448-2.6858253-1.2628746-4.1669998-1.1650009c-1.5461655-0.01408-3.0844078,0.2223129-4.5550003,0.7000008
		c-1.4000969,0.4663429-2.7666245,1.0279903-4.0900002,1.6810017l-2.1739998-4.5539989
		c3.4361534-1.9321938,7.3148842-2.9396935,11.257-2.9239998c2.8928452-0.156559,5.7466202,0.7242546,8.0480003,2.4840012
		c2.006012,1.6980896,3.1078033,4.2328262,2.9810028,6.8579979c0.0199394,1.1765347-0.172821,2.3469963-0.5690002,3.4549999
		c-0.4070168,1.051424-0.9903793,2.0257282-1.7250023,2.8809986c-1.2062645,1.3151131-2.5364075,2.5109673-3.9720001,3.5709991
		c-1.2228203,0.8787155-2.3086205,1.9338493-3.2220001,3.1310005c-0.5905609,1.0097084-0.8737907,2.1697464-0.8149986,3.3380013
		v1.1649971L30.8260002,44.6080017z M29.7650013,52.862999c0-2.6053314,1.2666664-3.9079971,3.8000011-3.9079971
		c1.05159-0.0727997,2.0855942,0.2982216,2.8509979,1.0229988c0.697319,0.793396,1.0518608,1.8307724,0.9860001,2.8849983
		c0.0560951,1.0632019-0.3023758,2.10672-1,2.9109993c-0.7458878,0.7488327-1.7781448,1.1401634-2.8330002,1.0740013
		c-1.0470009,0.0680351-2.0732822-0.3139534-2.8209991-1.0499992C30.0518818,54.9842949,29.6993866,53.9318275,29.7650013,52.862999
		z"/>
</g>
</svg>
