<?xml version="1.0" encoding="utf-8"?>
<!-- Generator: Adobe Illustrator 25.2.1, SVG Export Plug-In . SVG Version: 6.00 Build 0)  -->
<svg version="1.1" id="Warstwa_1" xmlns="http://www.w3.org/2000/svg" xmlns:xlink="http://www.w3.org/1999/xlink" x="0px" y="0px"
	 viewBox="0 0 27 15" style="enable-background:new 0 0 27 15;" xml:space="preserve">
<style type="text/css">
	.st0{fill:#72809D;}
</style>
<g id="Icon_ionic-ios-menu" transform="translate(-4.5 -10.125)">
	<path id="Path_6807" class="st0" d="M30.4,12.4H5.6c-0.6,0-1.1-0.5-1.1-1.1l0,0c0-0.6,0.5-1.1,1.1-1.1h24.8c0.6,0,1.1,0.5,1.1,1.1
		l0,0C31.5,11.9,31,12.4,30.4,12.4z"/>
	<path id="Path_6808" class="st0" d="M30.4,18.8H5.6c-0.6,0-1.1-0.5-1.1-1.1l0,0c0-0.6,0.5-1.1,1.1-1.1h24.8c0.6,0,1.1,0.5,1.1,1.1
		l0,0C31.5,18.2,31,18.7,30.4,18.8z"/>
	<path id="Path_6809" class="st0" d="M30.4,25.1H5.6c-0.6,0-1.1-0.5-1.1-1.1l0,0c0-0.6,0.5-1.1,1.1-1.1h24.8c0.6,0,1.1,0.5,1.1,1.1
		l0,0C31.5,24.6,31,25.1,30.4,25.1z"/>
</g>
</svg>
