<?xml version="1.0" encoding="utf-8"?>
<!-- Generator: Adobe Illustrator 25.2.1, SVG Export Plug-In . SVG Version: 6.00 Build 0)  -->
<svg version="1.1" id="Warstwa_1" xmlns="http://www.w3.org/2000/svg" xmlns:xlink="http://www.w3.org/1999/xlink" x="0px" y="0px"
	 viewBox="0 0 18.7940006 18.1170006" style="enable-background:new 0 0 18.7940006 18.1170006;" xml:space="preserve">
<style type="text/css">
	.st0{fill:#23BC3D;}
</style>
<g>
	<path class="st0" d="M17.4013672,8.8510704h-0.1318359V6.051754c0-0.7680664-0.625-1.3925781-1.3925781-1.3925781h-0.2138672
		l-1.8359375-3.1791992c-0.1777344-0.296875-0.5683594-0.3930664-0.8603516-0.2177734l-1.2441406,0.7109375l-0.9453125-1.6391602
		c-0.1826172-0.2978516-0.5712891-0.3925781-0.8603516-0.2172852L7.3066406,1.6088829H2.1557617
		C0.9672852,1.6088829,0,2.5761681,0,3.7651329v12.199707c0,1.1884766,0.9672852,2.15625,2.1557617,2.15625h13.7202148
		c0.7675781,0,1.3925781-0.625,1.3925781-1.3984375v-2.7988281h0.1318359c0.7675781,0,1.3925781-0.625,1.3925781-1.3925781
		v-2.2871094C18.7929688,9.4765587,18.1689453,8.8515587,17.4013672,8.8510704z M4.5566406,4.6581993l5.4423828-3.1401367
		l0.6298828,1.0913086L7.0620117,4.6581993H4.5566406z M1.262207,5.7495079
		c0.4980469,0.2099609,1.5488281,0.2060547,6.4609375,0.1875c1.9960938-0.0073242,4.6381836-0.0170898,8.152832-0.0170898
		c0.0722656,0,0.1308594,0.0585938,0.1308594,0.1308594v2.800293h-2.0322266
		c-0.6787109-0.0166016-1.3203125,0.2363281-1.8085938,0.7055664c-0.4892578,0.46875-0.765625,1.1005859-0.7802734,1.7783203
		c-0.0136719,0.6767578,0.2363281,1.3193359,0.7050781,1.8085938s1.1005859,0.765625,1.7753906,0.7802734
		c0.0371094,0,0.0742188,0.0019531,0.1035156,0h2.0371094v2.7988281c0,0.0722656-0.0585938,0.1308594-0.1308594,0.1308594H2.1552734
		c-0.0004883,0-0.0009766,0-0.0014648,0c-0.237793,0-0.4609375-0.0927734-0.6293945-0.2607422
		c-0.1689453-0.1689453-0.262207-0.3935547-0.262207-0.6318359V5.7495079z M17.53125,10.2441368v2.2871094
		c0,0.0722656-0.0585938,0.1308594-0.1308594,0.1308594h-3.4306641c-0.703125,0-1.2744141-0.5712891-1.2744141-1.2744141
		s0.5712891-1.2753906,1.2744141-1.2753906h3.4306641C17.4726562,10.1123009,17.53125,10.1718712,17.53125,10.2441368z
		 M1.2592773,3.7304649c0.0087891-0.2260742,0.1020508-0.4375,0.2612305-0.5961914l0.0014648-0.0014648
		c0.2250977-0.2270508,0.2666016-0.2695312,1.6738281-0.2695312c0.2519531,0,0.5473633,0.0014648,0.8955078,0.003418
		c0.3061523,0.0014648,0.6508789,0.003418,1.0410156,0.0048828l-3.0844727,1.78125
		C1.5888672,4.5996056,1.2407227,4.1992149,1.2592773,3.7304649z M9.5844727,4.661129l3.4643555-1.996582l1.1572266,1.996582
		H9.5844727z"/>
	<path class="st0" d="M13.5244141,10.9443321c-0.2441406,0.2470703-0.2421875,0.6474609,0.0048828,0.8925781
		c0.1230469,0.1210938,0.2822266,0.1816406,0.4433594,0.1816406c0.1630859,0,0.3261719-0.0625,0.4511719-0.1884766
		c0.0546875-0.0556641,0.0986328-0.1220703,0.1318359-0.2001953c0.0996094-0.2392578,0.0449219-0.5097656-0.1396484-0.6914062
		C14.1708984,10.6943321,13.7714844,10.6962852,13.5244141,10.9443321z"/>
</g>
</svg>
