<?xml version="1.0" encoding="utf-8"?>
<!-- Generator: Adobe Illustrator 25.2.1, SVG Export Plug-In . SVG Version: 6.00 Build 0)  -->
<svg version="1.1" id="Warstwa_1" xmlns="http://www.w3.org/2000/svg" xmlns:xlink="http://www.w3.org/1999/xlink" x="0px" y="0px"
	 viewBox="0 0 15.882 15.8789997" style="enable-background:new 0 0 15.882 15.8789997;" xml:space="preserve">
<style type="text/css">
	.st0{fill:#FFC423;}
</style>
<g id="refresh_2_" transform="translate(0.252 0.25)">
	<path class="st0" d="M14.8573751,1.8720417c-0.2236328-0.019043-0.4462891,0.046875-0.6220703,0.1923828
		c-0.1738281,0.1450195-0.2822266,0.3496094-0.3037109,0.5776367l-0.0175781,0.1884766
		c-1.1103516-1.4619141-2.6835938-2.4780273-4.4951172-2.8891602C7.3773947-0.5229778,5.2797384-0.1626263,3.5097187,0.9530964
		C2.3051288,1.7123737,1.329543,2.7861042,0.6894063,4.0571003C0.5858907,4.259737,0.5678242,4.4902058,0.6376485,4.7060261
		C0.707961,4.9223347,0.8578633,5.0981159,1.0600117,5.2016315c0.203125,0.1030273,0.4326172,0.121582,0.6494141,0.0517578
		C1.9252461,5.1830769,2.1015155,5.0331745,2.2050312,4.829073c1.5209961-3.0224609,5.2177734-4.2436523,8.2392578-2.7246094
		c0.5761719,0.2900391,1.0996094,0.6669922,1.5546875,1.1162109c-0.3027344-0.0390625-0.6152344,0.0839844-0.8046875,0.3476562
		c-0.1328125,0.1850586-0.1855469,0.4101562-0.1484375,0.6347656s0.1591797,0.4208984,0.3447266,0.5537109l2.5996094,1.8544922
		c0.1494141,0.1069336,0.3222656,0.1586914,0.4931641,0.1586914c0.265625,0,0.5273438-0.1235352,0.6943359-0.355957
		c0.0869141-0.1230469,0.140625-0.2675781,0.1542969-0.4169922l0.2919922-3.2001953
		C15.6669455,2.3310261,15.3231955,1.9164753,14.8573751,1.8720417z"/>
	<path class="st0" d="M14.3534689,10.1982136l-0.0498047-0.0488281h-0.0488281
		c-0.390625-0.1669922-0.8505859-0.0107422-1.0644531,0.359375l-0.0224609,0.0400391
		c-0.7353516,1.4638672-1.9980469,2.5537109-3.5546875,3.0683594C8.058547,14.1308308,6.393508,14.009737,4.9296408,13.2724323
		c-0.5756836-0.2890625-1.0996096-0.6660156-1.5541995-1.1152344c0.3022461,0.0390625,0.6157227-0.0839844,0.805176-0.3476562
		c0.2724609-0.3818359,0.184082-0.9140625-0.1977541-1.1875L1.3832539,8.766573
		C1.0023946,8.4936237,0.470168,8.5820026,0.197707,8.962862C0.1098164,9.0849323,0.0561055,9.2294636,0.0419453,9.3818073
		l-0.2910156,3.1992188c-0.0424805,0.4677734,0.3037109,0.8837891,0.7714844,0.9267578
		c0.4663086,0.0283203,0.8837891-0.3037109,0.9267578-0.7724609l0.0170898-0.1884766
		c1.5195311,1.9951172,3.8569336,3.0800781,6.2407227,3.0791016c1.4277344,0,2.8710938-0.3886719,4.1660156-1.2041016
		c1.203125-0.7597656,2.1767578-1.8320312,2.8154297-3.1005859C14.8954611,10.915987,14.7440939,10.4218464,14.3534689,10.1982136z"
		/>
</g>
</svg>
