<?xml version="1.0" encoding="utf-8"?>
<!-- Generator: Adobe Illustrator 25.2.1, SVG Export Plug-In . SVG Version: 6.00 Build 0)  -->
<svg version="1.1" id="Warstwa_1" xmlns="http://www.w3.org/2000/svg" xmlns:xlink="http://www.w3.org/1999/xlink" x="0px" y="0px"
	 viewBox="0 0 18 20" style="enable-background:new 0 0 18 20;" xml:space="preserve">
<style type="text/css">
	.st0{fill:#23BC3D;}
</style>
<g id="Iconly_Light-outline_Document" transform="translate(-3 -2)">
	<g id="Document" transform="translate(3 2)">
		<path id="Document-2" class="st0" d="M5.138,20c-0.3922882,0.0018101-0.7840238-0.0296364-1.171-0.0939999l-0.2179999-0.0410004
			c-1.1000903-0.1949673-2.0864887-0.7968731-2.763-1.6859989C0.2973234,17.1870937-0.0488657,15.9975519,0,14.7910004V5.2090001
			c-0.0007532-0.32096,0.0192888-0.6416316,0.06-0.96C0.41,1.549,2.2620001,0,5.138,0h7.7249999
			C16.0499992,0,17.9699993,1.919,18,5.132v9.6590004C18,18.052,16.0790005,20,12.8629999,20H5.138z M1.437,5.2090001v9.5810013
			c0,2.4890003,1.2450001,3.7520008,3.7,3.7520008h7.7160006c2.4499998,0,3.6919994-1.2630005,3.6919994-3.7519999V5.2090001
			C16.5450001,2.72,15.3030005,1.457,12.8530006,1.457H5.138C2.6819999,1.457,1.437,2.72,1.437,5.2090001z M5.382,14.9580002
			c-0.3998542,0-0.724-0.3241463-0.724-0.724s0.3241458-0.724,0.724-0.724h7.2110004c0.3998537,0,0.724,0.3241463,0.724,0.724
			s-0.3241463,0.724-0.724,0.724H5.382z M12.5930004,10.7290001H5.382
			c-0.4026155-0.0517616-0.6870389-0.4201069-0.6352777-0.8227224C4.7893534,9.5746803,5.0504031,9.3136311,5.382,9.2709999
			h7.2110004c0.2763844-0.0294256,0.5451193,0.1024141,0.691,0.3389997c0.1465721,0.2389832,0.1465721,0.5400171,0,0.7790003
			c-0.14571,0.2367735-0.4145718,0.3686752-0.691,0.3389997V10.7290001z M5.3909998,6.5
			C4.9886603,6.4504666,4.7026544,6.0841517,4.7521877,5.6818123c0.0411544-0.334281,0.3045311-0.5976577,0.6388121-0.6388121h2.743
			c0.402339,0.0495334,0.688345,0.4158483,0.6388121,0.8181877C8.731657,6.1954689,8.4682808,6.4588456,8.1339998,6.5H5.3909998z"/>
	</g>
</g>
</svg>
