<?xml version="1.0" encoding="utf-8"?>
<!-- Generator: Adobe Illustrator 25.2.1, SVG Export Plug-In . SVG Version: 6.00 Build 0)  -->
<svg version="1.1" id="Group_8785" xmlns="http://www.w3.org/2000/svg" xmlns:xlink="http://www.w3.org/1999/xlink" x="0px" y="0px"
	 viewBox="0 0 13.349 9.9540005" style="enable-background:new 0 0 13.349 9.9540005;" xml:space="preserve">
<style type="text/css">
	.st0{fill:#FFFFFF;}
</style>
<path id="Shape" class="st0" d="M4.5339999,9.7589998L0.2,5.421c-0.2606783-0.2602811-0.2610005-0.6826019-0.0007196-0.9432802
	C0.1995201,4.4774799,0.19976,4.4772401,0.2,4.4770002l0.9440001-0.944
	c0.2602808-0.2606783,0.6826018-0.2610006,0.9432802-0.0007198c0.0002401,0.0002396,0.0004799,0.0004797,0.0007198,0.0007198
	l2.918,2.9219997L11.2659998,0.2c0.2602806-0.2606785,0.6826019-0.2610008,0.9432802-0.0007201
	C12.2095203,0.1995198,12.2097607,0.1997598,12.21,0.2l0.9440002,0.9440001
	c0.2606783,0.2602808,0.2610006,0.6826018,0.00072,0.9432802c-0.0002403,0.0002401-0.0004797,0.0004799-0.00072,0.0007198
	L5.4780002,9.7589998c-0.2602811,0.2606783-0.6826019,0.2610006-0.9432802,0.00072
	C4.5344801,9.7594795,4.5342402,9.7592402,4.5339999,9.7589998z"/>
</svg>
