<?xml version="1.0" encoding="utf-8"?>
<!-- Generator: Adobe Illustrator 25.2.1, SVG Export Plug-In . SVG Version: 6.00 Build 0)  -->
<svg version="1.1" id="Warstwa_1" xmlns="http://www.w3.org/2000/svg" xmlns:xlink="http://www.w3.org/1999/xlink" x="0px" y="0px"
	 viewBox="0 0 20.6830006 20.6830006" style="enable-background:new 0 0 20.6830006 20.6830006;" xml:space="preserve">
<style type="text/css">
	.st0{fill:#72809D;}
</style>
<g id="Icon_ionic-ios-menu" transform="translate(-6.5 -6.125)">
	<path id="Path_6807" class="st0" d="M26.3868141,8.5110788L8.8859215,26.0119705
		c-0.4400215,0.4376907-1.1509686,0.4376907-1.5909901,0l0,0c-0.4376903-0.4400215-0.4376903-1.1509666,0-1.5909901
		L24.7958241,6.9200883c0.4400215-0.4376898,1.1509686-0.4376907,1.5909901,0l0,0
		C26.8245049,7.3601093,26.8245049,8.0710564,26.3868141,8.5110788z"/>
	<path id="Path_6809" class="st0" d="M24.7959805,26.0127563L7.2950883,8.5118628
		c-0.4376912-0.4400215-0.4376903-1.1509686,0-1.5909901l0,0c0.4400215-0.4376903,1.150969-0.4376907,1.5909905,0
		l17.5008926,17.5008926c0.4376907,0.4400196,0.4376907,1.1509686,0,1.5909901l0,0
		C25.946949,26.4504471,25.236002,26.4504471,24.7959805,26.0127563z"/>
</g>
</svg>
