<?xml version="1.0" encoding="utf-8"?>
<!-- Generator: Adobe Illustrator 25.2.1, SVG Export Plug-In . SVG Version: 6.00 Build 0)  -->
<svg version="1.1" id="Warstwa_1" xmlns="http://www.w3.org/2000/svg" xmlns:xlink="http://www.w3.org/1999/xlink" x="0px" y="0px"
	 viewBox="0 0 297.6809998 141.3410034" style="enable-background:new 0 0 297.6809998 141.3410034;" xml:space="preserve">
<style type="text/css">
	.st0{fill:#FF6584;}
	.st1{fill:#3F3D56;}
	.st2{fill:#23BC3D;}
	.st3{opacity:0.2;enable-background:new    ;}
</style>
<g id="Group_5987" transform="translate(-93.262 -317.205)">
	<g id="Group_5977" transform="translate(93.262 317.205)">
		<circle id="Ellipse_525" class="st0" cx="40.4329987" cy="11.7779999" r="11.7779999"/>
		<rect id="Rectangle_3886" y="140.723999" class="st1" width="297.6809998" height="0.569"/>
		<ellipse id="Ellipse_526" class="st2" cx="163.1529999" cy="86.9839935" rx="19.2579994" ry="19.2579994"/>
		<ellipse id="Ellipse_1453" class="st2" cx="47.1189995" cy="86.9839935" rx="19.2579994" ry="19.2579994"/>
		<ellipse id="Ellipse_1451" class="st2" cx="200.8939972" cy="73.8649979" rx="23.9400005" ry="23.9400005"/>
		<ellipse id="Ellipse_1454" class="st2" cx="84.8649979" cy="73.8649979" rx="23.9400005" ry="23.9400005"/>
		<ellipse id="Ellipse_1452" class="st2" cx="245.1170044" cy="73.8649979" rx="23.9400005" ry="23.9400005"/>
		<ellipse id="Ellipse_1456" class="st2" cx="129.147995" cy="73.8649979" rx="23.9400005" ry="23.9400005"/>
		<path id="Path_5494" class="st3" d="M177.4780273,74.1040039c4.1812744,9.7807312-0.3579712,21.0991821-10.1387329,25.2804565
			c-7.609375,3.2530212-16.446228,1.2814636-21.9512939-4.8974609c4.1812744,9.7807312,15.4996948,14.3200073,25.2804565,10.1387329
			s14.3200073-15.4997253,10.1387329-25.2804565C179.9882202,77.4296265,178.8638916,75.6595459,177.4780273,74.1040039z"/>
		<path id="Path_6795" class="st3" d="M61.4429932,74.1040039c4.1812744,9.7807312-0.3579712,21.0991821-10.1387329,25.2804565
			c-7.609375,3.2530212-16.446228,1.2814636-21.9512939-4.8974609c4.1812744,9.7807312,15.4996948,14.3200073,25.2804565,10.1387329
			s14.3200073-15.4997253,10.1387329-25.2804565C63.953186,77.4296265,62.8288574,75.6595459,61.4429932,74.1040039z"/>
		<path id="Path_5495" class="st1" d="M163.2109985,86.6929932h0.0529785l0.9520264,54.6000061h-2.0100098L163.2109985,86.6929932z"
			/>
		<path id="Path_6797" class="st1" d="M47.1589966,86.6929932h0.0529785l0.9520264,54.6000061h-2.0100098L47.1589966,86.6929932z"/>
		<path id="Path_6790" class="st1" d="M200.9729614,73.46698h0.065979l1.1829834,67.8739929h-2.5L200.9729614,73.46698z"/>
		<path id="Path_6798" class="st1" d="M84.9209595,73.46698h0.065979l1.1829834,67.8739929h-2.5L84.9209595,73.46698z"/>
		<path id="Path_6792" class="st1" d="M245.1819763,73.46698h0.065979l1.1829834,67.8739929h-2.5L245.1819763,73.46698z"/>
		<path id="Path_6801" class="st1" d="M129.2129517,73.46698h0.065979l1.1829834,67.8739929h-2.5L129.2129517,73.46698z"/>
		
			<rect id="Rectangle_3887" x="163.1025848" y="116.3728333" transform="matrix(0.8848314 -0.4659112 0.4659112 0.8848314 -35.4497147 90.2869873)" class="st1" width="3.5986853" height="0.9521813"/>
		
			<rect id="Rectangle_5251" x="47.0515862" y="116.3728333" transform="matrix(0.8848314 -0.4659112 0.4659112 0.8848314 -48.8151398 36.2175179)" class="st1" width="3.5986853" height="0.9521813"/>
		
			<rect id="Rectangle_5247" x="200.8383179" y="110.5398331" transform="matrix(0.8848314 -0.4659112 0.4659112 0.8848314 -28.389801 107.4137115)" class="st1" width="4.4728518" height="1.1842256"/>
		
			<rect id="Rectangle_5250" x="84.7882996" y="110.5398331" transform="matrix(0.8848314 -0.4659112 0.4659112 0.8848314 -41.7551117 53.3447037)" class="st1" width="4.4728518" height="1.1842256"/>
		
			<rect id="Rectangle_5248" x="245.0513153" y="110.5398331" transform="matrix(0.8848314 -0.4659112 0.4659112 0.8848314 -23.2978554 128.0130463)" class="st1" width="4.4728518" height="1.1842256"/>
		
			<rect id="Rectangle_5252" x="129.0793152" y="110.5398331" transform="matrix(0.8848314 -0.4659112 0.4659112 0.8848314 -36.6541824 73.9803848)" class="st1" width="4.4728518" height="1.1842256"/>
		<ellipse id="Ellipse_527" class="st2" cx="219.6790009" cy="58.8129997" rx="29.2859993" ry="29.2859993"/>
		<ellipse id="Ellipse_1455" class="st2" cx="103.6560059" cy="58.8129997" rx="29.2859993" ry="29.2859993"/>
		<path id="Path_5496" class="st3" d="M241.4630127,39.1959839c6.3650513,14.8703308-0.5298462,32.085022-15.4001465,38.4500732
			c-11.5771484,4.9554749-25.026062,1.9555969-33.3998413-7.4500732
			c6.3650513,14.8703308,23.5797729,21.7652283,38.4500732,15.400177
			c14.8703613-6.3650818,21.7652588-23.5797729,15.4001465-38.4501038
			C245.2697754,44.2409363,243.5643311,41.5562134,241.4630127,39.1959839z"/>
		<path id="Path_6796" class="st3" d="M125.4389648,39.1959839c6.3650513,14.8703308-0.5298462,32.085022-15.4001465,38.4500732
			c-11.5771484,4.9554749-25.026062,1.9555969-33.3998413-7.4500732
			c6.3650513,14.8703308,23.5797729,21.7652283,38.4500732,15.400177
			c14.8703613-6.3650818,21.7652588-23.5797729,15.4001465-38.4501038
			C129.2457275,44.2409363,127.5402832,41.5562134,125.4389648,39.1959839z"/>
		<path id="Path_5497" class="st1" d="M219.7810059,58.2640076h0.0809937l1.447998,83.0299988h-3.0579834L219.7810059,58.2640076z"
			/>
		<path id="Path_6800" class="st1" d="M103.7299805,58.2640076h0.0809937l1.447998,83.0299988h-3.0579834L103.7299805,58.2640076z"
			/>
		
			<rect id="Rectangle_3888" x="219.616272" y="103.61586" transform="matrix(0.8848314 -0.4659112 0.4659112 0.8848314 -23.005188 115.613121)" class="st1" width="5.4720421" height="1.4482758"/>
		
			<rect id="Rectangle_5249" x="103.5652771" y="103.61586" transform="matrix(0.8848314 -0.4659112 0.4659112 0.8848314 -36.3706131 61.5436554)" class="st1" width="5.4720421" height="1.4482758"/>
		<path id="Path_5500" class="st1" d="M177.0170288,11.2500019l2.7359619-2.1880016
			c-1.4222412-0.3159161-2.8580933,0.4724236-3.3549805,1.842001c-1.1403809-0.3785286-2.3828735-0.301857-3.4680176,0.2140007
			l5.4730225,1.9869995C178.1268921,12.3673954,177.6461182,11.723875,177.0170288,11.2500019z"/>
		<path id="Path_5501" class="st1" d="M39.9280014,22.2439957l2.7359924-2.1879959
			c-1.4222565-0.3159256-2.858139,0.4724197-3.3549957,1.8420029c-1.1403656-0.378418-2.3828125-0.3017502-3.4680023,0.2139969
			l5.4730072,1.9869995C41.0378952,23.3613892,40.5570755,22.717865,39.9280014,22.2439957z"/>
		<path id="Path_5502" class="st1" d="M218.559021,33.3409958l2.7349854-2.1880035
			c-1.4222412-0.315918-2.8580933,0.4724274-3.3549805,1.8420029c-1.1400146-0.3782501-2.3821411-0.3015823-3.46698,0.2139969
			l5.4730225,1.9869995C219.6689453,34.4583817,219.1881104,33.8148575,218.559021,33.3409958z"/>
		<path id="Path_6799" class="st1" d="M102.5090332,33.3409958l2.7349854-2.1880035
			c-1.4222412-0.315918-2.8580933,0.4724274-3.3549805,1.8420029c-1.1400146-0.3782501-2.3821411-0.3015823-3.46698,0.2139969
			l5.4730225,1.9869995C103.6189575,34.4583817,103.1381226,33.8148575,102.5090332,33.3409958z"/>
		<path id="Path_5503" class="st1" d="M62.4799957,16.3010025l2.7359924-2.1879997
			c-1.4222565-0.3159256-2.858139,0.4724159-3.3549957,1.8419991c-1.1403503-0.3785248-2.382843-0.3018532-3.4680023,0.2140007
			l5.4730072,1.9869995C63.5898895,17.418396,63.1090698,16.7748756,62.4799957,16.3010025z"/>
		<path id="Path_5504" class="st1" d="M67.5240021,39.836998l2.7350006-2.1880035
			c-1.4222565-0.3159256-2.858139,0.4724121-3.3549957,1.8419952c-1.1403503-0.3785248-2.382843-0.3018494-3.4680023,0.2140045
			l5.4730072,1.9869995C68.6332245,40.9544907,68.1527557,40.3109665,67.5240021,39.836998z"/>
		<path id="Path_5505" class="st1" d="M173.7530212,52.2399979l2.7360229-2.1880035
			c-1.4222412-0.315918-2.8580933,0.4724121-3.3549805,1.8419952c-1.1400146-0.3782501-2.3821411-0.3015747-3.46698,0.2140045
			l5.4730225,1.9869995C174.863678,53.3572464,174.3824768,52.7137222,173.7530212,52.2399979z"/>
		<path id="Path_6794" class="st1" d="M57.7030029,52.2399979l2.7360229-2.1880035
			c-1.4222412-0.315918-2.8580933,0.4724121-3.3549805,1.8419952c-1.1400146-0.3782501-2.3821411-0.3015747-3.46698,0.2140045
			l5.4730225,1.9869995C58.8136597,53.3572464,58.3324585,52.7137222,57.7030029,52.2399979z"/>
		<path id="Path_5507" class="st1" d="M47.2289963,137.17099c-0.7272034,0.0000305-1.4415436,0.1918335-2.0709991,0.5559998
			c-1.8242188-1.6485596-4.6394653-1.5061646-6.2880402,0.3180542c-0.740448,0.8193359-1.1499329,1.884613-1.1489563,2.9889526
			h13.6529999C51.2197495,138.8583069,49.4101486,137.171814,47.2289963,137.17099z"/>
		<path id="Path_5508" class="st1" d="M117.552002,137.17099c-0.7272034,0.0000916-1.4415283,0.191864-2.0710144,0.5559998
			c-1.8242188-1.6485596-4.6394653-1.5061646-6.2880249,0.3180847c-0.740448,0.8193054-1.1499329,1.8845825-1.1489563,2.9889221
			h13.6530151C121.5422974,138.8585205,119.7329712,137.1723022,117.552002,137.17099z"/>
		<path id="Path_5509" class="st1" d="M163.5440063,137.17099c-0.7271729,0.000061-1.4415283,0.1918335-2.0709839,0.5559998
			c-1.8242188-1.6485901-4.6394653-1.5061951-6.2880249,0.3180237c-0.7404785,0.8193359-1.1499634,1.8846436-1.1489868,2.9889832
			h13.6530151C167.53479,138.8583069,165.7251587,137.171814,163.5440063,137.17099z"/>
		<path id="Path_6804" class="st1" d="M47.4970093,137.17099c-0.7271729,0.000061-1.4415283,0.1918335-2.0709839,0.5559998
			c-1.8242188-1.6485901-4.6394653-1.5061951-6.2880249,0.3180237c-0.7404785,0.8193359-1.1499634,1.8846436-1.1489868,2.9889832
			h13.6530151C51.487793,138.8583069,49.6781616,137.171814,47.4970093,137.17099z"/>
		<path id="Path_6791" class="st1" d="M201.3850098,136.2180176c-0.9038086,0.0001526-1.791626,0.2384949-2.5739746,0.6910095
			c-2.2667847-2.0501099-5.7662964-1.8744507-7.8164062,0.392334c-0.9214478,1.0188293-1.4310303,2.3439636-1.4296265,3.7176514
			h16.9719849C206.3444824,138.3152161,204.0956421,136.219574,201.3850098,136.2180176z"/>
		<path id="Path_6802" class="st1" d="M85.3399963,136.2180176c-0.9038086,0.0001526-1.791626,0.2384949-2.5739746,0.6910095
			c-2.2667847-2.0501099-5.7662964-1.8744507-7.8164062,0.392334c-0.9214478,1.0188293-1.4310303,2.3439636-1.4296265,3.7176514
			h16.9719849C90.299469,138.3152161,88.0506287,136.219574,85.3399963,136.2180176z"/>
		<path id="Path_6793" class="st1" d="M245.6750183,136.2180176c-0.9038086,0.0001526-1.791626,0.2384949-2.5739746,0.6910095
			c-2.2667847-2.0501099-5.7662964-1.8744507-7.8164062,0.392334c-0.9214478,1.0188293-1.4310303,2.3439636-1.4296265,3.7176514
			h16.9719849C250.634491,138.3152161,248.3856506,136.219574,245.6750183,136.2180176z"/>
		<path id="Path_6803" class="st1" d="M129.6300049,136.2180176c-0.9038086,0.0001526-1.791626,0.2384949-2.5739746,0.6910095
			c-2.2667847-2.0501099-5.7662964-1.8744507-7.8164062,0.392334c-0.9214478,1.0188293-1.4310303,2.3439636-1.4296265,3.7176514
			h16.9719849C134.5894775,138.3152161,132.3406372,136.219574,129.6300049,136.2180176z"/>
		<path id="Path_5510" class="st1" d="M224.0750122,137.17099c-0.7271729,0.000061-1.4415283,0.1918335-2.0709839,0.5559998
			c-1.8242188-1.6485901-4.6394653-1.5061951-6.2880249,0.3180237c-0.7404785,0.8193359-1.1499634,1.8846436-1.1489868,2.9889832
			h13.6530151C228.0657959,138.8583069,226.2561646,137.171814,224.0750122,137.17099z"/>
		<path id="Path_6805" class="st1" d="M108.0280151,137.17099c-0.7271729,0.000061-1.4415283,0.1918335-2.0709839,0.5559998
			c-1.8242188-1.6485901-4.6394653-1.5061951-6.2880249,0.3180237c-0.7404785,0.8193359-1.1499634,1.8846436-1.1489868,2.9889832
			h13.6530151C112.0187988,138.8583069,110.2091675,137.171814,108.0280151,137.17099z"/>
		<path id="Path_5511" class="st1" d="M253.0830078,137.17099c-0.7271729,0.0000916-1.4415283,0.191864-2.0709839,0.5559998
			c-1.8242188-1.6485901-4.6394653-1.5061951-6.2880249,0.3180237c-0.7404785,0.8193359-1.1499634,1.8846436-1.1489868,2.9889832
			h13.6530151C257.0737915,138.8583069,255.2641602,137.171814,253.0830078,137.17099z"/>
		<path id="Path_6806" class="st1" d="M137.1069946,137.17099c-0.7271729,0.0000916-1.4415283,0.191864-2.0709839,0.5559998
			c-1.8242188-1.6485901-4.6394653-1.5061951-6.2880249,0.3180237c-0.7404785,0.8193359-1.1499634,1.8846436-1.1489868,2.9889832
			h13.6530151C141.0977783,138.8583069,139.288147,137.171814,137.1069946,137.17099z"/>
	</g>
</g>
</svg>
